/* XPM */
static char *heart[] = {
/* columns rows colors chars-per-pixel */
"18 18 7 1 ",
"  c #8C2939",
". c #A6353B",
"X c #C34032",
"o c #E25B41",
"O c #C69DAC",
"+ c white",
"@ c None",
/* pixels */
"@@@@@@@@@@@@@@@@@@",
"@@@@@@@@@@@@@@@@@@",
"@@@@@@@@@@@@@@@@@@",
"@@@@..@@@@@..@@@@@",
"@@@.XX.@@@.XX.@@@@",
"@@ oooX.@.XXXX.@@@",
"@@ ooooX.XXXXX.@@@",
"@@ .oo+XXX+XXX.@@@",
"@@@ .X+OXO+Xo.@@@@",
"@@@@ .O+.+Oo @@@@@",
"@@@@@ .+.+X @@@@@@",
"@@@@@@     @@@@@@@",
"@@@@@@@   @@@@@@@@",
"@@@@@@@@ @@@@@@@@@",
"@@@@@@@@@@@@@@@@@@",
"@@@@@@@@@@@@@@@@@@",
"@@@@@@@@@@@@@@@@@@",
"@@@@@@@@@@@@@@@@@@"
};
