/* XPM */
static char *Hotbar[] = {
/* columns rows colors chars-per-pixel */
"364 44 55 1 ",
"  c black",
". c #040404",
"X c #060604",
"o c #080904",
"O c #0B0B04",
"+ c #0D0E04",
"@ c #0F1004",
"# c #121304",
"$ c #141504",
"% c #161804",
"& c #191A04",
"* c #1B1D04",
"= c #1D2004",
"- c #202205",
"; c #222205",
": c #252404",
"> c #272505",
", c #272406",
"< c #2A2507",
"1 c #2A2607",
"2 c #2C2808",
"3 c #2E2B0A",
"4 c #2E2A0B",
"5 c #302C0E",
"6 c #302D0E",
"7 c #332E10",
"8 c #332E11",
"9 c #332F11",
"0 c gray28",
"q c gray30",
"w c gray33",
"e c #565656",
"r c #5A5A5A",
"t c #5D5D5D",
"y c #606060",
"u c #626262",
"i c gray40",
"p c #676767",
"a c gray42",
"s c #6D6D6D",
"d c gray44",
"f c gray45",
"g c #777777",
"h c gray48",
"j c #7C7C7C",
"k c #7E7E7E",
"l c #808080",
"z c #848484",
"x c gray52",
"c c #898989",
"v c #8B8B8B",
"b c #909090",
"n c #939393",
"m c gray67",
"M c #CECECE",
/* pixels */
"                                                                                                                                                                .                                                                                                                                                                                                           ",
"                 .           .                                                                                                                                  ..                                                                                                                                               .           .                                              ",
"  MMMMmmmmnnnnmmnnbbnnnnnnnnnnnvnnnnnnnnnnnnnnnnnnnnnnnnnnnnnnnnnnnnnnnnnnnnnnnnnnnnnnnnnnnnnnnnnnnnnnnnnnnnnnnnnnnnnnnnnnnnnnnnnnnnnnnnnnnnnnnnnnnnnnnnnnnnnnnnnnnnnnnnnnnnnnnnnnnnnnnnnnnnnnnnnnnnnnnnnnnnnnnnnnnnnnnnnnnnnnnnnnnnnnnnnnnnnnnnnnnnnnnnnnnnnnnnnnnnnnnnnnnnnnnnnnnnnnnnnnnnnnnnnnnnnnnnnnnnnnnnnnnbnnnnnnnnnnnbnnnnnnnnnnnnnnnnnnnnnnnnnnnnnnnnnnnnnnnnss  ",
"  MMMMmmmmnnnnmmnnnnnnnnnnnnnnnnnnnnnnnnnnnnnnnnnnnnnnnnnnnnnnnnnnnnnnnnnnnnnnnnnnnnnnnnnnnnnnnnnnnnnnnbnnnnnnnnnnnnnnnnnnnnnnnnnnnnnnnnnnnnnnnnnnnnnnnnnnnnnnnnnnnbnnnnnnnnnnnnnnnnnnnnnnnnnnnnnnnnnnnnnnnnnnnnnnnnnnnnnnnnnnnnnnnnnnnnnnnnnnnnnnnnnnnnnnnnnnnnnnnbnnnnnnnnnnnnnnnnnnnnnnnnnnnnnnnnnnnnnnnnnnnnnnnbnnnnnnnnnnnbnnnnnnnnnnnnnnnnnnnnnnnnnnnnnnnnnnnnnnnnss  ",
"  mmttttttiattttuutrttrrtyrrttiiyyrtytddttkkttrrttttttiittttrrttyyttttttaattttgguykkttttiyttiiiyiyttiyppyyttyuttttttttddttkkttttttrrttttttttyytttttteettuuttttddttklrrttttttttttaarrttttttrrttttttuuttddttkkttttttyyttttddttttttttrrttttttttttpppikhrrttttttttttrrttuyttttttttttttttttddttkkttttttttttrrttttttttttpittuuytrryyiitthhaittttttttttyyppppttttttyuttttttttdd00  ",
"  mmttttttiittttuyrrttrrttrrttiayyrtttddttkkttrrttttttiittttrrttyyttttttaattttgguykkttttyyttiaytyyttiyisyyttuuttttttttddttkkttttttrrttttttttyytttttteettuyttttddttllrrttrrttttttaarrttttttrrttttttyyttddttkkttttttyyttttddttttttttrrttttttttttppiihkrrttttttttttttttuyttttttttttttttttddttkkttttttttttrtttttttttttppttuyttrtyyiitthhiittttttttttyyppppttttttuuttttttttdd00  ",
"  mmii.. ........... .OO..oo..........dfyykkrr..++......................oo....llttkktt...o.. .Oo............ooo......okkiikktt..............O ................lkttkkyy..............+#...............olksakktt..XX....XX#+..........oo........kkrrkktt...o....OO...............X......lkttkktt.......X......oo..............ookkttllyy........O.........++ooXX........kk00  ",
"  mmii................OO..oo..........ffyykkrr..++......................oo...ollttkltt..o......O.......o....ooXX......kkaikktt..............o.................kkttkkuu..............+#.o............o.kkaakktt..XX....X.+#..........oo........klrrkktt..o.....OO....... ......XX......kkttkltt......o.......oo..............ookkttlliy..................OOooXX........kk00  ",
"  nnyy..**>>>>&&>>>,15,,1:,<%%>>3>>>>>kkeekkyi..25>>>>>>1>>>>>>>>>>221**>>:*11zzttlltt..2>1;>>>>>,<>>>,>2<>>>>>:**-,*-llttjjtt..1>>:>>23<>**;;::>>>>&&>>1>>>>,kkttkktr..>>::>>=>>:**1:;;1::1&&>>55;;;>kktthhyu..>>==>>:>12>>>>>>1>*&-*1>33==>>dfttkktt..==>>>>>>>>>>>><,21-->>--1,11>>kkyykktt..>>>>::::1>::>>>>1:>>>>::::33>>ggttkktt..1,>>>>-->>>>31>><,11;:33>>35>>kk00  ",
"  nnyy..**>>>>&&>>><52,1::,>%%>><>>>>>kkeekkyy..52>>>>>>>>>:>>>>;>2221&&>>=:11zzttkktt..<>>>>>>>><,<>>,>>>>>>>::**--,=lkttjhtt..>>::>>33>>**,-1:>>>>&&>>>>>>>>kkttkkrr..>>::>>;;>:**::;;;:>:&*>>93;;>>kktthhyu..>>==>>12<1>>>>>>>>&&:*>>33**>>dfttkktt..==>>>>>>>>>>>>>123-->>--1,11>>kkyykktt.o>>>>::::>>:>>>>>::>>>>::::33>>ggttkktt..-->>;>-->>>>1>>>,,1<>255:155>>kk00  ",
"  mmtt..1>>>>>>>::>>:>>>::::<<>>>>>>>>kkttkktt..>>::>>>>>>11>>>>>>5511<,>>33**kkttkkttX.%*>>>>>>-->>>>>>>>>>>>::-,>>>>hhuukkrr..>>>>>>13>>>>::-=>>33>>>>>>>>>>xxttkktt++>>**;>55>>>>>1>>>>23>>>>>>%%>>llttkktt..>>>>>275;;>>>>>>>>>>;:>>>>**%*hhyyzzyy..1>1211>>>>>><<>>1:**>>33>>1:>>kkyykktt..>>>>>>::>>**99>><,**;=>>>>>>>>kkrrkkyy..>>,=;;>>>>13**13<<<<>>>=2211>>lk00  ",
"  mmtt..>>>>>>>>::>>1:>>::::<<>>>>>>>>kkttkktt..>>::>>>:>=>;>>>>>>5611,,>>33**kkttkkttXo**>>>>>>-->>>>>>>>>>>>::--><>>dhuujhrrXX>>>>>>21>>>>11-*>>33>>>>>>>>>>xxttkktt++>>**:>55>>>>>>>>>>33>>>>>>%%>>lkttkktt..>>>>2299;;>>>>>>>>>>>>>>>>***%hhyyzxyy..>>2221>>>>>><<>>:1-*>>34>>>:>>kkyykktt..>>>>>>::>>**55>>>>**:;>>>>>>>>kkrtkkyy..>>,>>=>>>>31**33<<>>>,;=2211>>kk00  ",
"  nnpp..>>21>>&&>>::::>>1<3<>>>>>>311>kkrrkkttoo>>>>11<:>>>>>>>>,,:>>>>>>>>>>>kkrrkktt..:>,,1,11>>>>11>>11>>**>>**34,,llttkktt.X>>>>>>>>>>::::>>>>33>>>>>>>>--kkttzxuu.X::>>33>>>,>>*=>>>>>>**>>>>>3>>dfiikktt..**>>>>1:>>>>:1:>11>>>>55>>>>>>hhyuxxtt..::,->>>>1<>>>>*;:>**,,1<,,;=1>jjttkktt..**>>:1:>25111>>>>>>>>>**3333>>kkttkktt..>>==>>,,11,>33;==;>>=*>>=;1,11kk00  ",
"  nnpi..>>23>>&&>>::::>><<<3>>>>>>13>>kkrrkkttoo>>>>12:1>>>>>>>>:<<:>>>>>>>>>>kkrrkktt..1:,,>>11>>>>11>>11>1**>>**44,,llttkkttXX>>>>>>>>>>,>::>>>>33>>>>>>>>-,kkttzxuy.X::>>33>>,,:1==>>>>>>**>>>>31>>ffipkktt..**>>>>::>>>>,1>>11>>>>55>>>>>>jjuuxxtt..1<-->>>>11>>>>**1:*%,<,<,,*;>>jjttkktt..**>>:1>>52111:>>>>>>>>**3333>>kkttkktt..>>==>>,,11>>33=;;=>1**>>;;>,11kk00  ",
"  nntt..2233>>**>>>>>>>>-=35>>>>>><3>>kkttkkyy..1:<,**-:>>11>>>>1<>>>>>>>>>>::kkttkkyu..:>11>>>>>>>>>>==>>33**>>>>--41llttkktt.X::::>>%%>>33>>>>,*>>>>>>**==>,kkttkkyyXX>>>>;=>>-=,,1>>>>>>>>>**>>>>>>kkttkktt..**%%;>,,>>**99,<>>>>*-2<1<*:>>zzttlkttX.::>>11>:>>1:>>>>11>>>>>>99,,>>zzttffss.o>:55==>>1>3333--::>>>>>>>>>>>>kkyylktt..44,>%%<,>>>>>>>>>>31>>>>,=>><,ll00  ",
"  nntt..2233>>**>>>>>>:1-;33>>>>>>33>>kkttkkyy..::,,**-->>11>>>>12>>>>>>>>>>:>kkttkkyu..>>>1>>>>>>>>>>==>>31**>><<=-14llttkktt.X::::>>%%>>33>>>>=->>>>>>**=*><kkttkkyyX.>>>>=:>>*---:>>>>>>>>>**:>>>11kkttkltt..**%%>;,<>>**95,->>>>-=1111:*>>zzttkkttX ::>>11::>>::,1>>1>>>>>>>99:<>>zzttffssO >:95=*>>>>3332-,::>>>>>>>>>>>:kkyykktt..39>>%%,,>>>>>>>>>>11>>>>*->>>:ll00  ",
"  nntt..>>11>>34,>>>>>>>>>>>>>>>>>>>*=kkttjjttXX>>>>>>;;>>>>>>>>>><<431::>33>>klttkktt..<1>>>::1>>,,>>>>33>>>>>>33>>>>jkiijkttXX>>>>331:>>**>>>>>>>>>>%%22;;1<hfttkkyu..1>-***>>3322>>>>>>>>**>>>>>>33zziikktt..>,>>23>>-:1::1*&>>>>>>>>:,,,%*hhttvvttXX:1>>::;;1:**>>>>::>>,,::33>>11kkuukktt..>>>>>>>>>>>>$%>>**>>>>>>:::>>>kkttkktt..>>&&&&>>>>>>33>>>>>>>>>>>>>>>>kk00  ",
"  nntt..>>11>>43>>>>>>>>>>>>>>>>>>>>==kkttljtt.X>>>>>>=;>>>>>>>>>><<33:11:33>>llttkktt..<1>>>1::>-,>>>>>45>>>>,,51>>>>kkiikkttX.>>>>35:1>:*&>>>>>>>>>>%%22,-12fhttkkuu..>>--**>>3222>>>>>>,1*=>>>>>133zzppkktt..>>>>33>>>>:1>:**>>>>>>>>:1,,*%hhttvvttXX>>>>::;=::**>>>>::>><1:133>:31kkuykltt..>>>>>>>>>>>>%%>>**>>>>>>::>>>>kkttkktt..>>&&&*>>>>>>33>>>>>>>>>>>>>>>>kl00  ",
"  nntt..>>>>>>>>>>*=>>**>>>>>>><>>%%>>kkyyhhttXX1:1,>>>>35=**%>>>>;;>>*=>>**>>kkttkktt..1:>>>>,,=-33>>::>>,>>>351>>>>>kkrrljttX.22>>:2=,11<,1<2222--**,->>*-99kkqqkktr.o>>1>>>>:<,11>>>>>>>>>>>>>>*->,jhyyxxtt..>>>>>>>>>>>>;=-:>>>>;;**1:1<1:kkipddtt..>>>>>>::,,,,13>>>::;<<31>>:133kkttffuu..=*:>-=>>55::1>33>:**-->>**25>>gkttllttoo>2>>>>33&%>>**1->>>>>>>>22>>>>hf00  ",
"  nntt..>>>>>>>>>>==>>**>>>>>><<>>#*>>kkyyhhttXo::,,>>>>55**%*>>>>;;>>==>>**>>kkttkltt..1:>>>>,1--53>>::>>,>>>55>>>>>1kkrtjlttX.22:111-*21>><22212-,*&;->>=:99kkqqkkrro.>>>>>>>1>,11>>>>>>>>>>>:>>=-><hhyyxxtt..>>>>>>>>>>>>*:-=>>>>;;**>>11>>kkipddtt..>>>>>>::,,,,31>>>1:=<111>>,:33kkttffuu..**>>=:>>54::>>33::**,->>**52>>kgttllttoo22>>>>33&*>>*=::>>>>>>>>22>>>>fh00  ",
"  nnyy..>><<**>>>>>>-->>53;;>>>>;:23>>lkyuljttXo;=>>**::>>>>>>>>**>>13>>>>::55kkttkkttoo==1::-::>:=*>>>>>>>>>>>>>>>>>>kkttljtt..=;>:;;*-**>>>>>>,>>>>><<>>>><>kkttllyy..==>,>>::>>11>>>>>>>>99:1,>33>>hkttklrro+>>,*44>>>>>>31,,>>>>==1>>>%%99lkiikktt..>>>>>>=*>>1,>>1:>>>>>>>>>>>>>>hhttlktt..>>>>==-=>>1,>>>>>>:,>>>>::23>>kkrrkktt.o>>1><<;;11**>>-,>>11121:>>>>>>kk00  ",
"  nnyy..>><<**>>>>,1-->>35;;>>>>>>91;1kkuujlttXo-->>**::>>>>>>>>**>>31>>>>::77kkttkkttoo;;1:-=::>1=*>>>>>>>>>>>>>>>>>>kkttjltt..=;::;,*,**>>>>>>>>>>>><1>>>>,:kkttllyy..==>1>>1:>>11>>>>>>>>97::,>33>>khttllrr+o>>=-44>>>>>>33,<>>>>=&>>>>%%96kkiikktt..>>>:>>**>>,,>>:,>>>>>>>>>>>>:1hhttkktt..>>>>==;,>:1>>>>>>>><>>,,::53>>kkrrkkttO >><>1<::11**>>=*>:1122>>>>>>>>kk00  ",
"  nntt..*-,,>><<13::-,>>>>>>**>>>>;>1,vvttfftt..1>>>>>>>::>>*->;1:>>331:*%>>>:kkttcctt..**>>::::>>>>1355>>>>::>>>>>>;=hkttljttXX::2199>>**<1>>>>>>>>>>>,**>>>>hhiikhqqo.>>>>,:**>>>:>>>>>>12>::*>>=,11lxiikktt..=*>>>>>>>>>>,>22>>>><<:1;,:122kkttjjtt.X>>:19979**>::;11>>>>>>>>>>>>:-kkttjhtt..>>>>:;:1:1==**>>11%%>>>>:1:,11kkttkkee..>>:>>>>>*=1>>>>>>>:1;1>,>>%*>>kk00  ",
"  nntt..-*,,>><<31::>>>>>>>>**>>>>::,,vvttfftt.X:>>>>>>>::>>=*:>::<>33::*%>>>>kkttcctt. **,>::11>>>>1>55>>>>::>>>>>>>;khttjjttXX:;1196>>**<1>>>:>>>>>>>,**>>>>hhiahkqq.o>>>>;:**>>::>>>>>>22>>*;>>-*1>xxppkktt..**>>>>>>>>>>>>22>>>><1,:;-::22kkttjjtt.X>>:19995**>1=:31>>>>>>>>>>>>--kktthhtt..>>>1-:,,:1=***>>11%%>>>>::11<1kkttkkee..>>>>>>>>==>>>>>>>>:1:-,,>>&*>>kk00  ",
"  nntt..1111>>>>&*1>33::>>>>>>1<2:>>13ffttghtt@@>>>>;=>>>>33<><<,,**::33>>1:>>kkttkksa .**>>>>::::****;=1>>>>>=*>>;>>>kkttklttXo==>>>>=*>>>>>><<>>>>>>33>>;:*-xzttxxyy..>>>>>>:=>>1:23>>>>;;211;---->>kkttzztt..431<#%,,%&>>>>>>>>**23===-2233llaaxxtt..:=**>>>>>>13-:>>>>>>:>>;>>>>;-kkttffttXX1<**>>>>::>>55>>-;:,%%::-=>>>>hhttkkrr..**>>>>>>;;:,::&&>>1:>>>>>>>>>>kk00  ",
"  nntt..11>:>>>>**>>35::>>>>>>13>>>>33fftthhtt@+>>>>=;>>>>32>>,1,1**::33>>:1>1kkttkkaa..**>>>>:;;=*****;>>>>>>**>>::>>kkttllttXo==>>>>**>>>>>><1>>>>>>43>>1-:*zzttxxyi..>,>1>>:1>>:133>>>1;;11-:-,;,>>kkttzztt..4313%#,,&&>>>>>>>>**33==-=1233llasxxtt..=-**>>>>>>3<::>>>>>>:;;=>>>>=-kkttfftt..1<**>1>>::>>55>>-,1:%%1:*,>>>>hhttkkrr..**>>>>>>=*<,::&%>>::>>>>:1>>>>kk00  ",
"  nniio.>>>>**11>>>>>>>>11>>>>>>**>>,,lkrrkkttX.>>>>1>>>>>11>>=;1:,,,,13==--=>hhttkktt..>>>>**11==1:;;33>>>;>>>>>>=*>>hhrrkhrrXX>>>>>>>>:;>>33<1>>>>>>>>>>>>>>lkrrkktt..>>=-::11>>*=>>22=;1:*;2133:<<<kkyykkyyO.>>33,;>>>>>>>>>>>>>>>>1>**>>>>kkttkktt..**1>>>>>13>>1>>>>>>>>>;;>>>>>:kkiikktt..:<<:22>>>>>>>><<>>:>>>11>>>>>>kkrrkkyy..>>11>>>>:>,;23,,>>>,>>23::=->>kk00  ",
"  nnpp..>>>>**>1>>>>>>>><>>>>>>:*#>>,>kkrtkjttX.>>>>>>>>>>11>1;=::,1,,3<==*,--hhttkktt..>>>>%*11;:>>;;33>>;>>>>>>>**><hhrthkrtXX>>>>>>>>1->>33::>>>>>>>1>>>>>>kkrrkktt..>>;;::11>>==>>22;=::;=2>43::11kkyykkytOO>>33-->>>>>>>>>>>>>>>>>>**>>>>kkttkktt..**>>>>>>31>>:>>>>>>>>>==>>>>>1kkipkktt..>:,,3>>>>>>>>:<<>>>>>>11>>>>>>kkrrkkyy.o>>11>>>>>>--33<>>>1,>>331:,*>>kk00  ",
"  nnpp.o>>>>>>111,>>>>,,,>**>>1,3<*%>>kkttffttXX>>11>>>>>>>>##>;>>111:,,11%%>>sdttkktt..;:>>,->>22**>>>>>>>>>>>>::>>>>kkrrkkyy..>><<>>11,>>>21==>>>>>>==>>>>>1jkttkkrr..>>>>>>&&;;**>:,:>>2,>>>><,>>>>kkttkkww..>>::>>>><,>>1,>>:11:>>1149,:1-kkttkktt.o>>>>>>>>>>>>>>**>>2>>>2>;=>>>>kkuulktt..>>32<-:>>>>>311<>>1:>>>>>>111,kkttkkyyo.>>213311>>>>>>>>>>>>>>>1>>**22kk00  ",
"  nnppo.>>>>>>1111>>>>>>>>**>>:,<<%=>>kkttffttX.>>1,>>>>>>>>##>>>>11::,111%%>>ddttkktt..>>>>-->>11**>>>>>>>2>>>>::>>>>kkrrkkuu..>><<22<1,,>>,3=*>>>>>>:->>>>>>kkttkkrr..>>>>>>&&;;**-1:1>>>1>>>>:,>>>>kkttkkww..>>::>>>>,,>>,,>>>::1>>1194->:>kkttkkttO >>>>>>>>>>>>>>**>>11>>:>;;>>>>kkyykktt..>>32:<1:>>>>1311>>::>>>>>>11::kkttkkyyo.>>213311>>>>>>>>>>>>>>,,>>**23kk00  ",
"  nntt..13>>==>>&*>>::>>>>--13::**=;>>hhrrffttX.>>1>>><<>>**>>>>>>>>>>>>1:1:>>kkttxxtt..>>>><:>>>>>,*%>>>>;=>>>>>>>>><kkrrkkttX.>>>>22%*34>>,,>>>><<>>55==>>>>kktthktt..11>>>>12>>>>>>:1;=>>>>>>11:>>>hhttzxtt..-:>>>>>>&*:>:>>>=;35>>>>>>33>>llttkktt..>>>>33**>>>>>>**>>1>>>>>>>>>:1zzttkhtt..1<>>,:::*%>>1,=;>>>,>>>>>>211>kkttkktt..>>:*>>**,1>>>>>;>>>>1:1<>>::>:kk00  ",
"  nntt..53>>==>>**>>::>>>>--<<::**;=>>hhrrffttXX>>>>;1<>>>*=>>>>>>>>>>>>:::1>>kkttxxtt..>>>:1:,,>>>>$*>>>>=;>>>>>>>>><kkrrkkttX.>>>>22&&33>>,,>>>><<>>55==>>>>kkttkhtt. 33>>>>1>>>>>>>>:==>>>>>>::>;>>hhttzxtt..,:>>>>>>**>>>>>>=;93>>>>>,32>>llttkktt..>>>>33**>>>>>>**>>>>>>>>>>>>>1zztthktt..<<>;:1::%*>>,,;:>>><>>>>>>11:>kkttkltt..>1-*>>**,1>>>>>>>>>>::<<>>::::kk00  ",
"  nntt..>>33>>11>>1->>>><<>>>>>>,>>>>>lkipxxyu..1>>>>>21>>>>**231:*&:1::>>>>::kkttccdd..>>>>**33>>1>;;>>>>;;==->**>:>>xxiikktt..>>*:>1:>3311>>>>,,,:::>1::>>>>kkttggtt..>>>>>>>>::11:1221>>>**>>>>33;;kkttlltt..:;>>>>11>>1-,,**6521>>>>>>>>>,ggttzxtt..%&;>791:>>>>>>>>>:=->>=-53>>>>lkttkktt..>>>>>>=;:<<<>>>>1:,,11::>>>>>>kkyulltt..<1>>>>>>:>>>>>22>>>>>>>>22=*>>kk00  ",
"  nntt..>>32>>11>>>>>>>><<>>>>>>>>>>>>kkaixxuu..>>>>>>21>>>>**33:,&&>:;>>>>>>>kkttccdd..>>>>**32>:>>;;>>>>===*:>**11>>zxiikktt..>>-*>>:>3311>>>>>>:::::1:1>>>>kkttggtt..>>:1>>>>;,11>:2>>>>>**>>>>32;;kkttlltt..:1>>>>11>:;>,,**75>2>>>>>>>>,,hfttxxtt..&&:1991:>>>>>>>>::-=>>=-33>>>>kkttkktt..>>>>>>;=:-21>>>>::,11111>>>>>>kkyulltt..>>>>>>>>1:>>>>22>>>>>>>>22**>>kk00  ",
"  nntt..>>>>>>>>>>>>>>>>>>55>>>>>>>>><kkttkktt..-=>>>>,-**>>,,>>1<>>>>>>::>>>>llttzxpp..:::1>>33>>>>>>**>>>>1:3311==--llttkktt..>>1>>>>>-::::<56>>>>,,*=>>>>>>jjyyddrr++69<:>>>>>1>>::===;;=**>>=-111:llttkktt..:1>>;;>>>>>>*=>>1>>>>>;;>>>>1<kkttjjtt..1>*=22:>>>>>32>><:2<>>>><>>>>>kkttkktt..==>>>>>>-,,->>>>1,>>::55>>>>>3kkttlltt..>>>>::*%:,-->>**22<,>>>>==33>>kk00  ",
"  nntt..>>>>>>>>>>>>>>>>>>55>>>>>>>>><kkttkktt..=->>>>****>>,,>>11>>>>>>::>>>>llttzzpp..::>1>>33>>>>>>**>>>>:13311=*-,llttkktt..>>>;>>>>1>::>259>>>>,,*=>>>>>>jkyyddrr++99<:>>>>>>>:::==;;=;**>>=-11::lkttkktt..>:>>;;>>>>>1-->>:>>>>>;;>>>,<<kkttjjtt..:>==2>>>>>>>12>>,<<<>>>>:>>>>>kkttkktt..**>>>>>>;;-->>>>,,>:::55>>>>21kkttkktt..>>>>::$*<:,->>**21,,>>>1=*33>>kk00  ",
"  nntt..>>>>&&1:>>**>>>,>>>>%%>,>>>>>>kkttkktt..21>>>>>>,->>>>>>>>>>==33>>>>>>kkttkktt..9923>>1:>>>->>>>=*>>>>>>:>>>,=klrrkktt .;;**22**11>>33>>>>*%>:**69,-,:ffyyfftt..==>>>:>>:133,<11>>>>=*>>321:>>fgttfftt..>>**;;1>>21>>:>,11>>;;;><233>:kkyyllrr..>>>>2>33**1>>>&&;;,*2>>>>,392<kkttkktt.o>>>>;;*;::::,*1>,,::>>-->>>>**khtthhii..>>,,31>>**33>>**:1>>11*-21>>*:kk00  ",
"  nntt..>>>>&&>:>>**>>>,>>>>%%>>>>><>>llttkkttXX>>>>>>>>-->>-1>>>1>>==33>>>1>>kkttkktt..95331>:1>>:1>>>>**>>>1>>1:>>-*llrrkktt..;;**22**11>>33>>>1%*>1**59-1:1fdyyfftt..=*>>;:>>:133:111>>:1**>>22:111hgttfftt..>>**;;>>2>>>>1>>11>>;;::1133>1kkyylkrr..>>>1:>33**>>>1&&;;-=>>>>>,93<<kkttkkttX >>>>,-=;<:::=->>,,:1>>-,>>>>**kktthhii..>:,113>>**33>1**>:>><1:*<1>>;*kk00  ",
"  nnddkkkkkkkkkkkkkkkkkkccxzkkkkddccllkkttkkaakkhhkkzzhhkkhhkkhkkkkkxxkkkkklklkkyukkddkkzzkkkkzzkkzzkkjjkkkkkkffllzzhkhfttdfaahkggkkkkkkkkkkkkkkllkkzzzzllllhkkkttkkffkkljkkllkkhhhhkkkklkzxjjjlkkkkhhkkttkkffkkhhkkkkkkkkklkkkkdfggllklkkllzzkkrrhgddkkkkjjkkkkkkkknckkkkdfkkkkkkkkjjhjtthhkhnnhhljkkkkkkkkkkkkkkdfkkzzkkllkkkkttkhddkkkkkkkkkkhkkkhkkkjjggfflkkkkkzlkk00  ",
"  nnddkkkkkkkkkkkkkkkkkkcczzkkkkddcvllkkttkkaaklhhkkzzhhkkhhkkkhkkkkxxkkkkllllkkuukkddkkzzkkkkxxkkxzkkjjkkkkkkffllxxkhhhttffaakkggkkkkkkkkkkkkkklkkkzzxxllllkhkkttkkffkkjlkkllkkhhhhkkkkkkxxjjljkkkkhhkkttkkffkkhhkkkkkkkkllkkkkffghllllkkllzzllrrggddkkkkjjkkkkkkklvnkkkkffkkkkkkkkjjjjtthhhhcnhjjlkkkkkkkkkkkkkkffkkzxklllkkkktthkddkkkkkkkkkkkhkkkhkkjjggffkkkkkkllkk00  ",
"  nniittttyytttttyiytttrttaartttiittttttttssyyiittrrttyyttyyttttrrtttttttttteettttddttttttttuuuuyyttttttyyttttttttrrttttttddttttttttttuuyyttttttiittttrruuuueettttddttpyttttttyyrrrrttttttiittttyyttyyttttddttiiyyttyyttttttttttyueettttyyttyyttyyiattyytteeyyttrrttttttttyyttttrrttttrrrraattttetrrttttttttttyyttttrettttttyuttttssttttttyyttttttttttrrttttttttttttttyy00  ",
"  nnaittttyyttttiyyyttrrttiittttiittttttttssyyiittrrttiyttyyttttrrtttttttttteettttddttttttttuuuuyyttttttyyttttttttrrttttttddttttttttttuuuuttttttppttttrruuuueettttddttyyttttttyyrrrrttttttiittttyyttyyttttddttiiyyttyittttttttttyueettttyyttyyttytiittyytteeyyttrrttttttttyyttttrrtttyrrrraatttttertttttttttttyytttteettttttuuttttssttttttyyttttttttttrrttttttttttttttyy00  ",
"                                                                                                                                                                                                                                                                                                                                                                            ",
"                                                                                                                                                                                                                                                                                                                                                                            "
};
