/* XPM */
static char *west[] = {
/* columns rows colors chars-per-pixel */
"64 64 115 2 ",
"   c #372622",
".  c #392722",
"X  c #392822",
"o  c #3A2822",
"O  c #3B2A23",
"+  c #3C2A23",
"@  c #3C2B23",
"#  c #3D2B23",
"$  c #3D2C23",
"%  c #3E2C23",
"&  c #3C2A24",
"*  c #3C2B24",
"=  c #3D2B24",
"-  c #3D2C24",
";  c #3E2C24",
":  c #3F2C24",
">  c #3F2D24",
",  c #3E2C25",
"<  c #3E2D25",
"1  c #402D24",
"2  c #402D25",
"3  c #402E24",
"4  c #412E24",
"5  c #412F24",
"6  c #412E25",
"7  c #412F25",
"8  c #422F25",
"9  c #422F26",
"0  c #423025",
"q  c #433025",
"w  c #433125",
"e  c #433026",
"r  c #433126",
"t  c #443126",
"y  c #443127",
"u  c #453127",
"i  c #443226",
"p  c #453227",
"a  c #463227",
"s  c #463327",
"d  c #473327",
"f  c #463427",
"g  c #473427",
"h  c #463228",
"j  c #463328",
"k  c #473328",
"l  c #473428",
"z  c #473528",
"x  c #483328",
"c  c #483428",
"v  c #493428",
"b  c #483528",
"n  c #493528",
"m  c #483429",
"M  c #493429",
"N  c #483529",
"B  c #493529",
"V  c #4A3529",
"C  c #483628",
"Z  c #493628",
"A  c #493629",
"S  c #493729",
"D  c #4A3629",
"F  c #4B3629",
"G  c #4A3729",
"H  c #4B3729",
"J  c #4B372A",
"K  c #4C3729",
"L  c #4C372A",
"P  c #4D372A",
"I  c #4B3829",
"U  c #4B382A",
"Y  c #4C3829",
"T  c #4C382A",
"R  c #4D382A",
"E  c #4C392A",
"W  c #4D392A",
"Q  c #4D382B",
"!  c #4D392B",
"~  c #4E382A",
"^  c #4E382B",
"/  c #4E392B",
"(  c #4F392B",
")  c #4D3A2A",
"_  c #4E3A2A",
"`  c #4E3A2B",
"'  c #4F3A2B",
"]  c #4F3B2B",
"[  c #50392B",
"{  c #503A2B",
"}  c #503B2B",
"|  c #503C2B",
" . c #503A2C",
".. c #513A2C",
"X. c #503B2C",
"o. c #513B2C",
"O. c #503C2C",
"+. c #513C2C",
"@. c #513D2C",
"#. c #523C2C",
"$. c #523D2C",
"%. c #523C2D",
"&. c #523D2D",
"*. c #533D2D",
"=. c #523E2D",
"-. c #533E2D",
";. c #533F2D",
":. c #543D2D",
">. c #543E2D",
",. c #543F2D",
"<. c #543E2E",
"1. c #543F2E",
"2. c #553F2E",
"3. c #55402E",
"4. c #56402E",
/* pixels */
"D D D D D D D L R R L D R ..[ [ [ [ [ [ <.3.<.<.[ [ <.<.*.R [ *.<.R w 7 D ..<.<.<.<.[ R L D D D D D D L R [ [ [ [ R [ [ [ [ [ [ ",
"D D D D D D D D R R D L R R R R R R R [ [ *.*.[ [ [ *.*.R R R [ <.[ w 7 L ..*.<.<.| [ R L D D D D D D L L R R [ [ R R L L [ L L ",
"D D D D D D D D L D D D L L L L D D L D D D D D D D R R D R L R <.| w w R *.R R L R L D D D D D D D D D D D L D L D L D L L L L ",
"D D L D L D L L L R R R L D D D D D D v x a a a D D g D D D D R *.R w w *.<.R D D D D D D D D D D v D D D D D D D D D M M D D D ",
"D D R R R R R ..*.*.*.*.R R D D D v x a a a a a a a a v D D D L [ L 7 w R <...R L D D D D D D D a a a a v a a g a x a x a x D D ",
"D L R R [ ..R ..*.<.*.*...R D D D D v a x a a a a a a a D D D R [ D 7 w | <...R L L L D D D D v v x a a a a a a a a a a a x D D ",
"D D D R R [ [ ..R ....[ R D D D D D D v x v x a a a D D D D L [ *.R w w [ <...R [ R R L D D D D D v D D a a a a a a a a x D D D ",
"D D L R R ..R [ R [ [ R R D L L D v v v D v x a a a D D D D L [ <.[ w a R <...[ R R [ L L D D v D v v g v a a a a a a a x D D D ",
"V L L L [ [ [ [ [ [ [ R [ R [ L x x x x a x a a a a a a h h D / <.| a 7 L ..( [ L L D L D M x x x x u a x u u x a a a a a x D D ",
"L L L [ L L [ [ R [ [ R [ R [ L x x x a a a a a a a a a M h D ( *.R 7 7 V ( ( ( L L D M D D x a a a a a a x u u a a a a x v D D ",
"M D V L V L L [ ..R [ [ [ [ L D M x M x a a a x a a a a M D D D [ D - - M ( ( ( ..L D D M M M M a a a a a a u u a a v D D D D D ",
"L L L L L L [ [ [ [ [ [ [ R L L L L L V x x x x M M M D D D D ( [ D - O M ..( ( ( L L L L L L V V V V x x V V x D D D L D L D D ",
"L L [ L [ [ [ [ [ [ [ [ [ [ L [ [ [ [ [ L [ L [ L L L [ / / / ..[ D O O D ....( ..[ [ L [ [ [ [ K K K K [ L [ L L L L [ R R [ R ",
"L L V L V V V V V V V V D D D L V V V V V V L L D D V L D D D D M a O O h D M L L M L V V M V V V V K K V L V V L L L L L D L L ",
"8 8 8 8 8 8 8 8 8 8 7 7 8 8 7 7 8 7 8 8 8 8 8 8 7 7 7 8 7 7 7 9 O O o . O O 7 7 7 7 8 8 8 8 8 8 8 8 8 8 8 8 8 8 8 8 8 8 8 7 3 7 ",
"3 3 3 3 7 3 3 3 7 7 7 7 7 8 8 7 8 8 8 8 8 8 8 8 8 7 3 3 7 7 y y 7 O O 7 O 3 8 u 7 7 8 8 8 8 8 8 8 8 8 8 3 3 8 8 3 1 3 3 3 3 3 3 ",
"x x x x x x a v v g g v v L L v L F L v F R R | / / h y l ( / / R L L D v L R [ L V V L L L D L K K K K v v v v v g g g a v g g ",
"L x D x v v v v v v v v R R R R [ R R R R [ | 3.>.>.m h / ..<.<.<.*.[ R R [ *.| [ [ L L L L L L K K [ K S R R R R v D D D D D D ",
"x x x x v a g x v a g v v v D L L L v R D I R [ >...N m / >./ / R R R D L L v v x x x x x x x M x V K K R S R R I I D I D D D D ",
"a a 8 x a a a a a x a v a v D R F L R R R R R R >...N N >.>.../ R D D D D v v a u x x x 8 x a a u x V V v S v v v D D v D v D D ",
"a a a a a a a a v v v v L R R R R [ *.*.*.*.R | <...D h ..:...( R R R D v v v v x x x a a a a a V V F F F F F F D D D v a a v a ",
"a a a a a a a a v v v v L R R L R R | *.*.| [ [ ../ h D ..:...( [ R R D L L L L L V x x a a a D V F F F F F F F D D D D v a a g ",
"a a a a a a a a a x x x x x v v D D R R R R [ [ ..( h D ..<...( [ [ R R [ [ [ L L D x v x D D D K [ K [ [ L F F R R D D v D D D ",
"a a a a x a a a a a a a x x a v a x D D D L R [ ( ( h h ..<...( R R [ R L L L L D v D v D M D D K [ [ K [ F F F R R D D v v D D ",
"a a a a a a a a a a a x v v v v L R R R L D D L ( L h h ( ( ( ( R L D D D x x x M M M M a M D D L D L D L L D L L D x a x a x a ",
"a a a a a a a a a a a x v v v R R R R R D D D L ( L h h V ( ( L D D D v a a a a 8 h 8 M a a M D D D D D D D D D D D x a a a a a ",
"a a a a x a a x a a a a x x x F L D L L D D D L ( L 8 8 L ( L M a a a a a a a a 8 M M M M D D D D D D D D M D D D D D D a a a a ",
"v v v v x x x x x x x x x x F F L L L L D L L L ( L 8 8 D ( ( D D v D x x x x x M M D V L L D L L D L L L D L L D L D D D x x D ",
"R L L L L R L L L L [ L L [ [ [ R R L ..L ....( ( V 7 7 V ( ( ( L L L L L L L L L ( ( ( ( ( L ( L ..L [ ..L [ L L [ [ R L L L L ",
"L L L D L L F L F L F F V V F F D L M D M M M L M u 3 3 u V M M V L L L L L L L L L L L L L L L L L L L L L L L L L L L L L [ L ",
"x a 7 7 7 3 7 3 8 8 8 8 8 8 8 8 7 7 % O O O O O O O . . O 3 2 7 8 8 8 8 7 7 7 8 h h h M M h h h h M M h h h M h M h h h h h M a ",
"D a a w 8 a a 7 8 8 8 8 3 3 8 8 7 3 % O O 3 3 O 3 3 O 3 3 O u u 8 8 3 3 8 a 8 8 h h h u h u h h h h h h h h h h h M h M h M h h ",
"] ] ] ] ] ] ] R I I I I l l I C l l f l l C l I ! ! ! l C I / ] #.L a a I R R I I I D l D l l l D l I I I l I I I R I R ) I I I ",
"3.*.3.*.3.*.3.3.] ] ) I I I I I I C l C ] ! ] ] ] *.] / ] ] *.3.2.#.l D ] 3.*.] ] I I D D D D I D I R I C I I ] ) ] I ] ] ] ] ] ",
"! ! ! ! I I R I I I C C g C C C l l C C l C I C ! ! ! I I I ! / <.<.v l ) *.] ] I I D D D D l l g g C C g g C g C C I I I I I I ",
"I D D D I I I I I C g g f g f f g g f l l l l l l D D I l D I ] <.| v a I ] ] I I D D D D D l l g g g g f f g f g l C I D I D I ",
"! ! I I I ] ] I ] R I l g f f f g f f g l l I l I D D l I I I ] 3.] l l ] ] ] I I D D D D D I v C l g f f f f g l l I I ! ! D D ",
"/ I D I I ] I ] I I I C g g g g g g g g D I I I I I D ! I I / ] 3.*.l l *.3.I I I I I D D D D D I I g g g f f g C I l C I ! I D ",
"! I D D I C C C C C l l g g l C l I C C l I ! ] / I D I R ] ] *.3.] w w ] 3.] ] R R I D D D D D D I g g f f f f l l l C l I D D ",
"l D I I I I C C g g g g g l C C I l D I I I I / / ! ! D I ] R ] 3./ w w I 3.] ] ] I D D D D D D l l g g f f f g g C l l l l l D ",
"D D ! / ] ] I I I l l f f g g C l l I D D D I I I I D D I I I I ] I w > ] ] ] ] I I I v S I D I g g f f g f g g C C l I l l I D ",
"D ! / / I ) ) ! C C l f f f f f g l l D D D D D D D D D D D I I I I w w S ] ] ] I S v I v S v g g f f f f f f g l D I l I D D D ",
"D D D D C C C C C f l l f f f g l I D D D D D D D D I l D I R ] ] I > w S ] ] ] I D I v g g g g g f f f f f g g g g g g D D D D ",
"D ! D I C C C C C C C C C C C C I I I I D I I I I I I I D I ] ] ] I > w I ] ] ] I I I I S C C C C C C C C C C C C C C I I I I I ",
"] ] / ] ] ] I ] I ] I R ] I ) ) ] R ] ] / R ] ] ] ] R ] ] ) ] ] ] I w w I ] ] ] R ] R ] ] I ] R ) ] I ] ] ] I ] I ] R I R R ] ] ",
"C C C C C C I C I C I C C I C I I I I I I I I I I I I I I I I I I C > > g I S I I I I I S I S S S S S S S S S S I I I D I I I C ",
"- - - - - - - - - - - - - - - - > w w > w > > w w > w w > w > w w > % % > 0 0 0 w w 0 > 0 0 0 0 0 0 0 0 0 0 > 0 w > w w w w - - ",
"O - O O O - O O O o - - - - @ % w > w > w w w w w w > > w > w w w w w w w 0 0 > w > w w w w 0 0 0 0 0 0 0 0 w 0 0 w w > % - - O ",
"y l h y g w l l y l C l l g l C I I I I I I ] ] ] ! l l C ! ] ! ] / I I I I D I I I / ] ] ] I I ] ] S S I I I I I I g g g a a a ",
"I l l I C C D l D I ) I I I I ] ) ) ) ] ) ] ] 3.3.*.! I ] ] 3.3.3.*.] / ! ] / / / ] *.*.3.*.] ] | 3.] ] R ] ] R ] I I C D D I l ",
"l C l l g C g g l l l C l g l C C C I I I I ! / ] / D ( *.3.3.] ! ! I I I I D ! I I ! ! ! I I I I R R I I I I I C g g g g g g g ",
"f l l l f f g f g f g f g f g g f l l C C I D I ] / ( N ] 3.] ] I D I I I l D D l I D D D D D D S v S v g I g g g g g g g g g g ",
"f f f f f f g g f f f g f f f f l f l C l I ! ] *.*.! N *.3.] ] / ] ! I I l D D I l D D D D D D g g g g g g g g f f f f f f f g ",
"f f f f C l l l C C C C C C C C C I C C I ! ] *.3.*.D ! *.3.*.] ] ] ] ] ! ! ! I ! ! I I I I I l g g g g f f f f f f f g f f f f ",
"f f f f C C C l I ) I ) ) ) ) ) ] ] ) ) *.*.] ] 3.*.l I ] *.] ] ] ] 3.3.3.] ] ] 3.] / / ] I I C I C g g f f g f f f f f f g f f ",
"f f f C l C I I I ) ) ] ) ) ] ] 3.] ] ] 3.] ] ] *.] l l ] 3.] ] ] ] ] *.3.] ] ] ] *.] ] ) I I C v v g g f f f f g g g g g g g g ",
"f f f f g g g g C C I I I I I I I ! I I ! I I ! *.*.l l ] ] ] ] ! I I ] I / I ! I I ! I I l g g g g g g g g g l g C l D D D D l ",
"f f f f g f f f g g C C D D D D D D D D D D I / *.] l l I ] ] I I l C C C l I l l C C l l l f f f f f g g g g l l I D D D l D D ",
"f f f f f f f f f f g l l D D D D D D D D D / ] ] ) l l I ] I I l l l l l l l l f l l l f f f f f f g g g l l D I D D D g g g g ",
"C C C C C C C C C C C C I I I I I I I I D / / ] ] ! l l I ] I I C C C C C C C l C C C C C C C C C g l I I I I I I I I I I C C l ",
") I ) ) I ] I ] I ] I I / / ] ] ] ] ) ] R ] ] ] ] ! l f I ] ] ] ! ! ) ) ) ) ) ) ! I ! ! ] I ! ! ) ) ) ) R ] ] ] ] ] ] ] ] I ) ) ",
"I I I I S I I I I I I I I I I I I I C C C I C I I l y y C I I I I I ! ! I ) ) I ! ! I ! I ! I I I ) I I I I I I S S S S I I I I ",
"0 0 w > w w > w w w w w w w > w w > > - - - - - - - - > > w w w > f l l l l l l l l l l l l l l l l l l g a w 0 0 0 w 0 0 w w > ",
"% % % % % % % % % @ % @ @ @ % % % @ o             o - - % @ @ % @ - > y y y y w y y y y y y y y y y w f w w % % % % @ % @ % % % "
};
