/* XPM */
static char *south[] = {
/* columns rows colors chars-per-pixel */
"64 64 211 2 ",
"   c #4B2A35",
".  c #4B2A36",
"X  c #4D2A36",
"o  c #4D2A37",
"O  c #4F2B37",
"+  c #502B36",
"@  c #512B36",
"#  c #502B37",
"$  c #502C37",
"%  c #522C36",
"&  c #522C37",
"*  c #532C37",
"=  c #542C37",
"-  c #502C39",
";  c #512C39",
":  c #522C39",
">  c #532C39",
",  c #522D39",
"<  c #532D39",
"1  c #522D3A",
"2  c #532D3A",
"3  c #552D38",
"4  c #552D39",
"5  c #562D38",
"6  c #562D39",
"7  c #572D39",
"8  c #572E38",
"9  c #572E39",
"0  c #542D3A",
"q  c #552D3A",
"w  c #562D3A",
"e  c #572D3A",
"r  c #562E3A",
"t  c #572E3A",
"y  c #562E3B",
"u  c #572E3B",
"i  c #582E39",
"p  c #582E3A",
"a  c #592F3A",
"s  c #582E3B",
"d  c #582F3B",
"f  c #592F3B",
"g  c #5A2F3B",
"h  c #5B2F3B",
"j  c #5B2F3C",
"k  c #59303B",
"l  c #5B303C",
"z  c #5C303C",
"x  c #5C303D",
"c  c #5D303D",
"v  c #5C313D",
"b  c #5D313D",
"n  c #5E313C",
"m  c #5E313D",
"M  c #5E323D",
"N  c #5C303E",
"B  c #5D303E",
"V  c #5D303F",
"C  c #5E303E",
"Z  c #5E303F",
"A  c #5F303F",
"S  c #5F313F",
"D  c #60323F",
"F  c #5C3040",
"G  c #5D3040",
"H  c #5C3140",
"J  c #5E3040",
"K  c #5F3040",
"L  c #5E3140",
"P  c #5F3140",
"I  c #5E3041",
"U  c #5F3041",
"Y  c #5E3141",
"T  c #5F3141",
"R  c #5F3142",
"E  c #603140",
"W  c #613140",
"Q  c #603141",
"!  c #613141",
"~  c #623141",
"^  c #603240",
"/  c #613240",
"(  c #603241",
")  c #613241",
"_  c #623240",
"`  c #623241",
"'  c #603142",
"]  c #613142",
"[  c #623142",
"{  c #603242",
"}  c #613242",
"|  c #613342",
" . c #613243",
".. c #623242",
"X. c #633242",
"o. c #623342",
"O. c #633342",
"+. c #623243",
"@. c #633243",
"#. c #623343",
"$. c #633343",
"%. c #643242",
"&. c #643342",
"*. c #643243",
"=. c #643343",
"-. c #653343",
";. c #663343",
":. c #633441",
">. c #633442",
",. c #643441",
"<. c #643442",
"1. c #643443",
"2. c #653443",
"3. c #663443",
"4. c #663543",
"5. c #673543",
"6. c #633244",
"7. c #623344",
"8. c #633344",
"9. c #643244",
"0. c #643344",
"q. c #653344",
"w. c #653345",
"e. c #633444",
"r. c #643444",
"t. c #653444",
"y. c #653445",
"u. c #663444",
"i. c #673444",
"p. c #663544",
"a. c #673544",
"s. c #663445",
"d. c #673445",
"f. c #663545",
"g. c #673545",
"h. c #663446",
"j. c #673446",
"k. c #663546",
"l. c #673546",
"z. c #673547",
"x. c #683643",
"c. c #693643",
"v. c #683544",
"b. c #683545",
"n. c #693644",
"m. c #683645",
"M. c #693645",
"N. c #6A3644",
"B. c #6A3744",
"V. c #6B3744",
"C. c #6A3645",
"Z. c #6A3745",
"A. c #6B3745",
"S. c #683546",
"D. c #693546",
"F. c #683547",
"G. c #683646",
"H. c #693646",
"J. c #683647",
"K. c #693647",
"L. c #6A3646",
"P. c #6A3746",
"I. c #6B3746",
"U. c #6A3647",
"Y. c #6A3747",
"T. c #6B3747",
"R. c #6C3744",
"E. c #6C3745",
"W. c #6C3746",
"Q. c #6D3746",
"!. c #6C3747",
"~. c #6D3747",
"^. c #6C3845",
"/. c #6D3846",
"(. c #6D3847",
"). c #6E3846",
"_. c #6E3847",
"`. c #6F3847",
"'. c #6F3947",
"]. c #683648",
"[. c #693648",
"{. c #6A3648",
"}. c #6B3648",
"|. c #6A3748",
" X c #6B3748",
".X c #6A3649",
"XX c #6A3749",
"oX c #6B3749",
"OX c #6C3748",
"+X c #6D3748",
"@X c #6C3749",
"#X c #6D3848",
"$X c #6D3849",
"%X c #6E3848",
"&X c #6F3848",
"*X c #6F3948",
"=X c #6E3849",
"-X c #6F3849",
";X c #6D384A",
":X c #6F394A",
">X c #703947",
",X c #703948",
"<X c #713948",
"1X c #703949",
"2X c #723A48",
"3X c #733A48",
"4X c #70394A",
"5X c #71394A",
"6X c #723A4A",
"7X c #733A4A",
"8X c #733A4B",
/* pixels */
"6X&Xd.+.6.6.].d.r.6.].].oX6.y k B.8X8X6X6X&XXXXXXXXX[.XXXXR 2 1 r.k.1.| | 1.S.S.r.+.+.1.S.1.d d V.>X(.W.6X>X3X3X3X>X(.S.S.| 1 . ",
"6X&Xd.+.6.d.d.oXd.d.].].].r.y k S.6X6X&X&X&XXX].].d.].].[.r.2 2 | k.d.| @.1.S.S.d.r.| d.S.| d k V.>XW.S.(.>X>X>X>X(.W.S.B.r.1 . ",
"6X&Xd.6.d.d.oXS.].].].].oXr.j j B.6XoXd.XXXXXXd.d.6.r.d.].R 1 1 | B.k.d.@.1.S.S.d.d.B.k.S.1.d k V.>XS.1.S.W.W.S.V.V.S.S.S.| 1 o ",
"6X&XS.S.oX@XoXS.oX].].oXoXr.y y S.XXd.6.S.XXoXd.6.+.6.r.].r.1 1 | (.XXB.S.S.S.B.B.XXB.XXB.1.u k V.W.V.@.S.S.W.W.@.@.1.S.B.| 1 . ",
"oX@X&X6X6X&X6X6XXX].]..X].r.1 2 r.XXd.d.&X&Xd.6.6.+.6.6.].r.1 1 R.(.B.(.(.>X>X>XB.B.XXB.W.1.d d @.S.@.@.@.V.W.W.V.D @.S.oX| 1 . ",
"+.d.S.W.S.S.W.S.r.r.r.r.6.H - 2 R ].r.d.&X&Xd.6.6.r.6.d.d.6.1 1 | R.5.1.V.^.(.V.5.1.r.1.1.D = d 1.S.1.D @.@.W.W.@.+.@.@.S.| 1 . ",
"u d d k l k k d d y 2 2 2 - o 2 r.d.6.d.&X&Xd.6.d.d.r.6.].R 2 - k M l M M M l V k M l l V k = k 1.S.@.+.D +.V.S.@.@.+.1.S.| 1 . ",
"k k j d d d d l k d 2 2 2 - o 2 6.].r.d.&XXXd.6.d.].r.d.].r.2 - k M M M M M D l M M l V l k = d 1.S.@.D V D V.S.V.@.+.1.S.| u o ",
"B.S.S.d.d.0.S.S.XXS.r.6.r.H - - 6.].r.d.oXd.R R d.].d.6.oXr.1 1 D ^.^.R.W.V.(.V.V.1.1.1.1.D k d 1.d.D V V +.(.(.@.@.@.v.v.@.d % ",
"6X6X6X&XS.oX&X6X&X&XoX].].r.1 1 r.d.6.r.].d.R R r.d.6.d.d.| 1 u R.8X,X'.>X6X>X(.S.S.S.S.S.1.d d | d.D V l D V.(.v.D D @.v.@.d % ",
"XXXXS.d.d.d.oXoXoXd.d.d.].r.y y r.].6.r.].].R R r.6.+.6.].r.u d ^.>XR.1.W.W.W.S.1.1.S.(.S.1.8 d 1.d.D V V D S.S.@.@.D v.V.1.d % ",
"XXd.0.+.6.6.S.0.6.R +.6.].d.y k r.].r.r.].r.R H +.6.+.6.].r.u k V.(.1.1.1.S.S.S.1.1.d.S.S.+.d d | 1.D V V D @.V.@.@.v.@.S.@.d % ",
"oXd.d.6.6.@.0.+.R R +.0.].r.u u r.d.+.+.d.].R R +.+.R +.].6.y k 1.S.@.@.@.V.S.S.@.@.@.V.V.+.d d +.1.V V j +.1.S.1.@.@.@.V.| d % ",
"XXS.r.+.+.+.+.+.R R R 6.].r.u u +.0.R R 6.0.R G R R R R d.r.y d 1.S.1.@.D @.V.V.@.@.@.@.V.@.d = D | D V j +.S.S.@.@.D +.d.+.d % ",
"&X&Xd.+.+.G +.+.j G H +.d.r.d u R +.R R 6.6.R G R R H R ].r.u d | V.+.+.@.@.@.D @.@.D @.d.1.d u 1.1.D V j +.1.S.1.@.D +.1.1.d % ",
"&XXXd.+.G G R R R G R R ].1.u u R +.H R +.6.G F F j R R d.r.d d 1.(.1.+.@.@.@.@.@.@.@.V.S.| d d @.1.V V j D S.V.@.D V D S.1.d % ",
"XXXXd.+.R R R G R F F R d.r.u u R +.G R +.+.G G G G F R ].6.u d V.`.v.@.@.@.v.v.V.D @.@.V.1.d = D +.D V j +.v.S.@.V V +.1.@.d % ",
"&XS.6.R V k G G G G F R ].r.u u V +.R G +.R G G G G G R d.r.j k V.W.@.@.@.0.v.v.@.@.@.1.S.1.d d D +.V l A D @.@.D l j D S.1.d % ",
"&XXXr.R G G G G F G R R ].r.y u V +.V R G R G G G G R R ].r.y k @.V.@.A +.@.v.v.@.@.+.@.S.+.d = D +.D V j A D @.D j j V 1.1.d % ",
"8X&X| H G G G R F F F R d.6.y u +.+.R j G G G G F H F R d.r.y y 1.@.D A D @.@.v.@.@.+.+.V.1.d u D D V V j A @.+.D j +.+.V.1.d % ",
"6XW.+.F F G +.R R F F R d.1.u u +.+.R G G G G G F F F +.d.1.u d 1.d.D V D @.v.v.D @.D V.S.1.d u j @.A j j +.+.+.V V V V d.1.d % ",
"6XoX+.G G R +.+.R G G +.d.@.u u j +.G G G G G G F F F R ].@.d u D V.D V A @.@.D @.@.@.@.S.1.d = A +.+.j A j D +.V l V +.1.1.d % ",
"oXS.0.+.G G +.+.k R +.6.oXr.u u Q +.G G G G G G R F H R d.r.d u D +.V V A A D @.@.@.@.v.d.| d u A +.D A j Q A Q V l V D 1.1.d % ",
"].oX6.+.+.G +.+.R R +.6.].r.u u Q +.+.G G G G G F H R R ].r.u u V +.D V n A @.@.D @.D @.V.+.d = A +.j j A j j j V V V D S.@.d % ",
"].].6.6.+.+.+.+.R R +.+.d.r.y u G +.Q j G G G G G G G Q d.r.d u D +.V V V V +.D D V | 1.S.1.u u A +.Q j j A j A l D V D 1.1.d = ",
"oXd.6.+.+.6.+.+.+.R +.d.].r.j u Q +.+.G G G Q G G G G Q d.r.k y D +.D l l D +.@.D V D 1.S.1.u u A @.A A A j Q j D V V +.1.1.d % ",
"oX].0.6.+.+.6.6.r.d.+.d.S.d.u u G +.+.Q G Q Q Q G G G Q d.d.l l @.1.D V j A D @.M V V | 1.| u 1 j @.A j j Q j Q D +.V D 1.1.d % ",
"].d.d.+.6.d.6.r.].].r.d.S.+.u u Q 0.0.+.Q Q 6.Q G G G 6.S.1.V l @.1.+.V j A D D V V V D S.+.1 % j @.A Q j j j Q +.D V D S.1.d % ",
"oX].d.6.d.d.r.6.].].].].].r.u u A @.@.@.Q G @.@.Q G G +.0.0.l h +.@.+.j A +.j Q V l V D d.+.> > A @.A j l D j D D +.V D 1.1.d % ",
"].r.6.d.d.oXd.r.].].].].oXr.u u Q @.0.Q Q Q Q @.Q G G 6.].d.l d D @.D j A j j j V l V D d.+.> # j @.A A V V j D +.+.D D S.1.d % ",
"6.0.6.d.&X&XXX].].oX].oX].r.y u A @.@.@.Q @.@.Q G G Q 0.].d.k V @.@.D j D +.+.j V V V P d.| u > j @.A j V l j V +.+.+.1.V.1.d % ",
"6.6.+.d.&X&XXXXX].].].].oX6.y u Q @.@.@.0.@.0.@.Q Q 6.0.].0.k V 1.V.+.A @.@.+.j V V V P d.| > > A @.Q A V V V D D @.@.@.d.@.d % ",
"].d.6.d.&X&XoX].oX].].oXoXd.d u R +.0.+.6.6.d.d.6.+.6.6.S.1.l l 1.S.@.@.V.1.D V +.D V +.1.| 1 1 +.1.D V j Q j Q @.@.@.v.v.@.d = ",
"].d.6.d.&X&XoX].].].].].S.+.u u +.0.0.+.6.6.].].d.+.+.d.B.S.l l V.S.@.v.S.1.+.D | | V D 1.1.1 1 | 1.| V A j j Q Q D D @.v.@.d % ",
"r.6.6.r.].oXoX].].].oX].oXr.d u +.d.0.+.+.+.0.0.+.+.+.0.oXd.l l V.W.V.@.d.d.V D 1.d.V D S.| u 1 +.S.1.D j A j A A A @.v.V.1.d % ",
"+.6.6.6.].].].].oX].d.].].r.u u | d.d.+.+.6.r.6.+.+.6.r.].r.l V V.W.@.@.S.d.D +.d.d.D +.1.1.1 1 | S.1.+.Q Q j j j A @.@.S.@.h % ",
"+.@.+.d.].].].].].].r.].].r.y u +.d.+.+.+.0.d.d.d.+.+.d.oXr.k D V.`.V.@.S.S.| 1.S.1.| D 1.| 1 1 | S.1.@.D j j Q V V +.1.V.1.l = ",
"6.+.+.d.].].].].].].6.6.d.6.k u R 6.@.+.6.0.oXd.0.+.+.0.d.r.k V V.`.v.@.1.d.1.@.S.1.D | S.| 1 1 | S.@.D D V A j V V D +.d.@.l d ",
"@.+.+.0.].].r.d.].].6.r.oX6.d u r.d.d.+.+.0.].d.0.+.6.0.S.d.l l V.`.v.D 1.@.@.@.S.d.1.| S.| 1 1 | S.1.+.j j j A l V V +.V.1.l 8 ",
"+.+.+.0.d.].6.6.d.d.6.d.S.r.d u r.S.6.+.+.6.].oX0.+.+.d.S.V.l D V.`.V.@.@.@.@.1.d.d.@.1.B.| 1 1 1.B.1.+.+.j +.j V V j +.1.V.l 8 ",
"0.+.+.0.0.0.0.@.0.0.@.0.oX6.d d r.d.R R 6.6.].d.0.@.@.0.oX0.l l ).`.v.@.V.@.@.@.@.@.@.v.S.| u u V.W.v.@.D V D D D l j +.S.1.l d ",
"0.0.0.+.+.+.@.@.@.+.@.0.S.0.d u r.].R R R 6.].d.0.@.@.0.S.0.l V V.`.v.@.1.V.@.@.D v.D @.S.| % 1 v.W.v.D A D @.@.D V j D d.1.l 8 ",
"S.d.6.+.@.@.@.@.0.+.+.0.oXr.y u r.].R H R R 6.r.@.@.+.0.oXr.k V v.V.@.D @.@.@.+.@.@.@.v.S.| 1 1 +.V.v.@.+.+.@.D V j j +.V.@.l 8 ",
"oX].0.6.+.+.@.+.+.+.+.0.d.6.j u r.d.R H j R +.6.+.+.+.0.d.d.V k @.v.v.@.@.@.+.+.@.D @.@.1.+.u = @.S.@.D @.@.@.@.D j j @.1.V.l 8 ",
"oXoX6.+.+.R +.+.R G +.0.oXr.u j 6.].R F F R R +.R R +.0.B.1.l l @.V.@.v.V.@.+.D D v.@.v.v.@.d d V.W.@.@.D @.S.@.V V V D d.1.l d ",
"].d.0.+.R V +.R R G +.0.d.r.u y r.d.+.G F R +.+.G R R 0.oXd.l l @.S.1.@.V.@.D j @.D D @.V.@.d h V.>XV.@.@.1.S.V.D V V +.d.1.l 8 ",
"].].0.+.G G j R G R R d.].r.y y r.d.R F G G R +.R G R d.].r.l l 1.S.@.@.@.@.D D D @.A @.v.1.d h V.>Xv.D @.@.V.S.1.D V D 1.1.l 8 ",
"].d.0.+.R G G G H R R 6.].r.y u r.].+.G G R +.+.R R R r.].r.V k 1.V.@.@.D +.V V @.D A A @.@.d d V.`.@.@.+.1.S.S.@.+.V D S.V.l 8 ",
"oX].6.R G G G G G G R +.d.6.u u | d.| H R +.6.+.R H R R ].r.k V 1.S.+.+.D +.D V +.D V D 1.1.8 d @.S.1.@.D v.W.W.v.Q A A v.1.V 8 ",
"].].6.+.G G G G G G G R ].6.u k d.S.6.R +.6.r.6.R F F R d.d.k V 1.1.V D D D V D D +.V D V.@.d u @.V.v.D @.v.W.`.v.D A D v.@.l 8 ",
"oXd.0.+.R G G G G G G +.d.r.u k S.(.+.R +.d.d.r.R F F R d.d.l V 1.S.D j V D V V V V V D 1.1.d d @.S.@.@.@.@.S.S.@.D A Q V.@.l d ",
"oX].0.+.G G G G G G G +.d.6.j k S.XX+.R +.| ].d.R F R R d.d.k k @.1.+.G j j D l V V V +.1.@.d u 1.V.@.@.@.v.S.W.v.Q A A @.V.l 8 ",
"].].0.+.R V G G F H R R ].r.u u d.].r.+.6.r.].k.R F j 6.d.r.k u D @.D V l V V V V V l D V.+.d d 1.V.@.@.D V.W.W.@.D V D V.1.V 8 ",
"].0.0.+.R R R G R F F +.].r.y u r.].r.+.+.6.].d.R R G +.].r.u u D @.V V V V l V l V V D 1.1.u d +.S.1.@.@.V.>X`.V.+.V D 1.1.l 8 ",
"6.6.6.+.j F R R G F H R d.r.k y r.d.d.+.+.6.].].6.R R R d.r.y u @.1.D V V l V l V l V D 1.1.d 8 @.S.1.1.@.W.>X`.@.+.V +.V.1.l d ",
"6.6.+.+.R R +.+.R F H R ].r.u j r.oXr.6.6.d.].d.0.+.G R ].6.y y @.1.D V V D D V V V V +.V.@.d d 1.V.@.@.S.W.>XW.@.+.V D 1.1.h 8 ",
"+.@.+.+.R R +.+.G G j R ].r.y j B.&Xd.6.d.].].].6.+.R R 0.0.h e D @.j +.D +.D Q j j A +.S.@.d d R.(.d.| d.B.(.S.V.D V D d.1.d = ",
"@.@.+.+.R R +.+.R G R +.d.6.y k B.&X].d.].].].].0.6.R 6.oX0.e e D +.+.j +.+.@.+.+.j j +.1.@.d l R.(.d.d.d.S.B.d.@.+.D +.S.1.d % ",
"@.@.+.+.+.+.+.+.G G +.6.d.r.j j B.6XoXoX].oX].oXoX0.6.0.z.6.e e V D D j D @.@.D +.D j D V.@.d k R.(.B.].B.XXS.S.S.@.@.@.1.1.d % ",
"@.@.+.+.+.+.+.+.R R +.6.oX6.u d S.&XXXXXXXXXXXXXoX].0.0.oX0.h e D +.D +.@.@.@.@.+.+.D +.1.1.d d R.(.&XB.XXB.(.(.W.S.V.@.S.@.d % ",
"@.@.@.@.6.+.+.+.+.+.+.6.].r.y j d.&X&X6X6X>X6X6XoXoXd.]..X0.e e A @.@.@.D @.@.D @.D D D 1.1.u d 1.&X(.6X>X>X>X(.S.S.d.V.S.| k % ",
"0.0.@.@.+.6.d.0.+.6.+.d.d.r.u u D V.S.B.B.(.S.^.d.6.r.r.6.Q > e A D 3.D @.@.@.v.@.D D @.V.| d u | B.(.(.>X(.(.^.V.1.1.V.V.D d % ",
"S.S.0.@.+.r.].d.d.+.+.6.].| y u k l l D V V V l V k k y e e @ * A @.@.@.@.@.D v.@.@.+.@.d.1.u u R d.d.d.d.@.D l V k l l l d = % ",
"oXS.0.@.+.6.].d.d.+.+.d.].d.u % 8 i i 8 8 8 8 8 8 u % 1 % @ X @ A 3.3.D @.@.D @.D @.@.1.S.| u u R 6.6.+.+.+.h 8 8 8 d 8 8 u = = "
};
