/* XPM */
static char *east[] = {
/* columns rows colors chars-per-pixel */
"64 64 193 2 ",
"   c #615444",
".  c #615445",
"X  c #635645",
"o  c #645745",
"O  c #655846",
"+  c #675A47",
"@  c #685A47",
"#  c #685B47",
"$  c #695C47",
"%  c #685B48",
"&  c #695C48",
"*  c #695D48",
"=  c #6A5C48",
"-  c #6A5D48",
";  c #6A5D49",
":  c #6B5E48",
">  c #6B5E49",
",  c #6B5F49",
"<  c #6C5F48",
"1  c #6C5E49",
"2  c #6C5F49",
"3  c #6D6048",
"4  c #6D6049",
"5  c #6E6149",
"6  c #6D604A",
"7  c #6F624A",
"8  c #6F634A",
"9  c #70624A",
"0  c #70634A",
"q  c #71634A",
"w  c #70644A",
"e  c #71644A",
"r  c #71644B",
"t  c #71654B",
"y  c #72644B",
"u  c #72654B",
"i  c #73664B",
"p  c #72644C",
"a  c #73664C",
"s  c #74664C",
"d  c #74674C",
"f  c #75664D",
"g  c #75674D",
"h  c #75684D",
"j  c #76684D",
"k  c #76694D",
"l  c #766A4D",
"z  c #776A4D",
"x  c #766B4D",
"c  c #77694E",
"v  c #776A4E",
"b  c #766C4D",
"n  c #776C4D",
"m  c #786A4D",
"M  c #786B4D",
"N  c #786A4E",
"B  c #786B4E",
"V  c #796B4E",
"C  c #786A4F",
"Z  c #786B4F",
"A  c #796B4F",
"S  c #786C4D",
"D  c #786D4D",
"F  c #796C4E",
"G  c #786D4E",
"H  c #796D4E",
"J  c #796D4F",
"K  c #7A6C4E",
"L  c #7A6D4E",
"P  c #7B6D4E",
"I  c #7A6C4F",
"U  c #7A6D4F",
"Y  c #7B6D4F",
"T  c #796E4E",
"R  c #7A6E4E",
"E  c #7B6E4E",
"W  c #7A6F4E",
"Q  c #7A6E4F",
"!  c #7B6E4F",
"~  c #7A6F4F",
"^  c #7B6F4F",
"/  c #7C6E4F",
"(  c #7C6F4F",
")  c #7D6F4F",
"_  c #7B704F",
"`  c #7C704F",
"'  c #7D704F",
"]  c #7C714F",
"[  c #7A6C50",
"{  c #7B6D50",
"}  c #7A6E50",
"|  c #7B6E50",
" . c #7B6F50",
".. c #7C6E50",
"X. c #7C6F50",
"o. c #7D6F50",
"O. c #7C6F51",
"+. c #7D6F51",
"@. c #7C7050",
"#. c #7D7050",
"$. c #7C7150",
"%. c #7D7150",
"&. c #7D7151",
"*. c #7E7050",
"=. c #7F7050",
"-. c #7E7150",
";. c #7F7150",
":. c #7E7051",
">. c #7E7151",
",. c #7F7151",
"<. c #7E7250",
"1. c #7F7250",
"2. c #7E7251",
"3. c #7F7251",
"4. c #7F7351",
"5. c #7F7252",
"6. c #7F7352",
"7. c #807151",
"8. c #807251",
"9. c #807351",
"0. c #807252",
"q. c #817252",
"w. c #807352",
"e. c #817352",
"r. c #817353",
"t. c #827352",
"y. c #807451",
"u. c #817451",
"i. c #807452",
"p. c #817452",
"a. c #807552",
"s. c #817552",
"d. c #817453",
"f. c #817553",
"g. c #827452",
"h. c #827552",
"j. c #827453",
"k. c #827553",
"l. c #837553",
"z. c #817652",
"x. c #817653",
"c. c #827653",
"v. c #837653",
"b. c #837753",
"n. c #847553",
"m. c #847653",
"M. c #847753",
"N. c #837554",
"B. c #837754",
"V. c #847654",
"C. c #857654",
"Z. c #847754",
"A. c #857754",
"S. c #857755",
"D. c #847854",
"F. c #857854",
"G. c #847954",
"H. c #857954",
"J. c #857955",
"K. c #867954",
"L. c #867855",
"P. c #867955",
"I. c #877955",
"U. c #857A55",
"Y. c #867A55",
"T. c #877A55",
"R. c #867B55",
"E. c #877B55",
"W. c #887A55",
"Q. c #887B55",
"!. c #887A56",
"~. c #887B56",
"^. c #897B56",
"/. c #887C55",
"(. c #887C56",
"). c #897C56",
"_. c #897D56",
"`. c #8A7C56",
"'. c #8A7D56",
"]. c #8A7C57",
"[. c #8B7D57",
"{. c #8A7E56",
"}. c #8A7E57",
"|. c #8B7E57",
" X c #8A7F57",
".X c #8B7F57",
"XX c #8C7E57",
"oX c #8D7F58",
"OX c #8B8057",
"+X c #8C8057",
"@X c #8C8058",
"#X c #8E8058",
"$X c #8E8258",
/* pixels */
"N.L.XX#X#XXXL.j.=.=.=.=.o.=.o.t.j.C.C.C.C.C.C.C.C.C.C.N.=.=.=.=.o.=.=.=.N.N.=.=.N.N.C.N.N.C.N.L.XX#X#XXXL.L.`.`.L.C.N.L.oXL.r : ",
"L.L.^.`.`.L.C.j.=.=.) =.=.' ) =.j.j.j.j.j.j.j.N.j.j.j.j.=.=.o.=.=.o.=.=.t.t.=.=.t.N.N.N.N.N.N.C.L.^.^.L.N.C.`.^.L.j.j.L.`.L.z $ ",
"`.^.m.t.j.t.t.=.=.=.=.=.=.) =.=.=.t.=.=.t.=.t.=.t.=.t.=.=.=.=.=.o.=.=.=.=.=.=.=.=.=.t.=.=.=.t.=.=.| o.=.=.t.t.t.t.=.=.j.`.L.g $ ",
"#X`.j.=.o.o.o.=.=.=.o.o.) ) ) ) ) | =.) F =.F =.F ) ) =.=.=.=.=.=.=.=.t.t.j.j.t.t.=.o.=.o.o.o.F z z z z F =.F ) ) =.=.t.`.m.r 3 ",
"#X`.C.t.=.o.=.=.) =.=.) F V V V F F V V V V V V F F ) =.) =.j.j.N.N.N.N.L.`.`.L.C.t.=.o.o.o.V V z z z z n V V F ) =.=.=.Z.t.r : ",
"oXoXL.N.t.=.=.=.=.=.=.) F V V V z z z z z z z z F F ) o.=.=.t.j.N.N.N.L.`.XXXX`.C.t.=.o.=.o.F z F z F z z z V F ) =.=.j.L.=.r : ",
"oX`.L.C.N.N.j.t.=.=.o.o.) ) ) F z z z z z z z V F ) =.=.=.=.=.t.N.N.C.L.L.L.L.L.t.o.=.o.o.=.o.o.o.F F z z V F o.=.=.t.C.`.j.e 8 ",
"`.`.L.C.N.j.N.t.t.) ) ) ) ) ) ) V z z z z z z V o.=.o.=.=.=.=.t.N.N.C.N.C.N.N.N.t.t.=.=.o.o.o.o.) F F z z V ) o.F =.j.L.XXm.z $ ",
"L.C.C.N.q.=.t.=.=.) F F F F F V z z z z z z z z V F o.=.o.t.q.N.N.N.N.C.N.C.N.N.N.N.N.:.F V V V F z z z z z z [ F F ' j.`.L.d < ",
"C.N.C.N.q.=.o.o.) ) F V z z z z z z z z z z V F V V o.=.=.=.q.N.N.N.N.N.C.N.C.C.N.N.N.q.| V V z z z z z z z z z F F ) j.`.j.r $ ",
"C.C.C.N.N.q.t.o.) o.) F F V z z z z z z z z F F | ) o.o.o.=.=.=.=.=.N.C.N.C.C.C.C.N.q.=.o.| o.| V z z z z z z z F F =.=.C.o.8 X ",
"C.C.C.C.C.C.q.:.t.=.t.=.| F F F | | | | F | t.t.=.t.t.=.=.t.t.=.t.j.N.C.C.C.C.C.C.N.q.q.t.=.t.:.o.F | F | | | o.t.t.t.j.N.| :   ",
"C.C.C.C.S.C.N.N.N.N.N.C.j.j.j.j.N.q.N.q.N.q.N.C.j.N.N.N.N.N.N.N.N.N.C.C.C.C.C.C.C.C.N.N.N.N.C.N.j.q.N.=.N.q.N.q.N.N.N.C.C.| :   ",
"| | o.o.:.q.:.:.=.:.=.=.=.=.=.=.:.:.=.:.=.=.=.=.=.=.=.=.=.=.=.o.=.=.=.=.:.=.:.:.=.=.:.:.:.=.:.:.=.=.=.=.:.:.=.:.+.:.o.:.o.g +   ",
"= 1 9 9 e e e e e e e e e e e e e e e e e e e e e e e e r r r r e e e e e e e e e e e e e e e e e e e e e e e e e e e 9 > + X   ",
"1 7 9 e e e e e e e e e e e 8 8 e e e 9 9 7 0 0 9 0 0 9 0 0 0 0 8 8 8 0 7 e e e e e e e e e e e e g g e 9 9 e e e g g 9 > = = : ",
"N.q.=.=.=.=.=.:.=.=.=.=.=.| | | o.o.| V V V V V F F F F F F F F F F F F F | =.=.=.=.=.=.=.=.=.=.L.L.L.6.g g [ t.N.C.C.N.=.o.| o.",
"^.!.N.t.q.N.N.q.j.t.q.N.N.N.=.=.t.N.=.=.=.=.o.t.=.=.o.) o.) ) ) o.) | =.| =.=.j.N.N.N.N.N.N.N.N.L.XX#XL.[ [ q.^.^.XX`.^.C.N.N.N.",
"o.| | | F | | | F | F ) =.=.=.=.=.=.=.=.=.o.o.=.=.o.F F V F F F F F F F F F F | @.=.=.j.=.=.=.t.j.L.oXL.| [ C.XX^.C.N.t.=.t.=.t.",
"[ z V z z z g z z z V V | o.=.=.=.o.=.=.o.o.o.o.=.F F z z z z z z z z F F F F | =.=.=.=.j.N.j.j.=.N.XXL.[ | L.XXL.N.t.o.o.o.o.o.",
"F o.) F z z z z z z F | o.o.=.o.o.o.o.o.=.) V V V V z z z z z z z z F =.) =.=.j.N.N.N.N.^.`.`.L.N.L.XXL.| | L.oXL.N.N.t.=.o.o.o.",
"t.=.=.) F F F n V | =.t.=.t.=.=.=.o.t.t.t.) V V F V z z z z z z z F F ) | =.=.N.N.:.:.N.L.`.`.^.L.L.`.C.V | L.XXL.N.N.N.q.t.=.t.",
"N.j.=.=.) ) o.| | =.t.N.N.N.N.q.t.o.t.t.=.o.o.) ) F V z z z z z z n F F F F F | F | | @.=.j.j.N.j.L.L.j.z [ C.XXL.C.N.N.N.q.N.N.",
"t.t.=.) ) | o.o.o.=.t.N.N.N.N.N.t.=.t.t.o.) ) ) o.| V z z z z z z z z z z z V V n F F | =.=.=.=.j.j.N.t.[ [ C.XXL.C.N.N.N.N.q.t.",
"F F F F V V V F o.=.=.=.t.=.=.=.o.=.t.o.| V V V V V z z z z z z V z z z z V F o.| =.=.q.N.t.=.=.=.q.N.N.N N N.!.C.N.t.=.=.=.o.| ",
"z z z z V n V F o.=.=.=.o.=.=.o.o.o.o.) V z z z z z z z z z z z z z z z z F F ) =.=.N.N.N.q.=.o.=.=.N.:.N N :.N.N.t.o.o.o.F z z ",
"z z z z | =.| =.o.=.=.o.=.o.=.=.o.) o.o.o.[ V z z z z z z z z z z V z z z n F F o.=.q.:.=.=.=.=.o.=.N.:.e e :.N.t.o.| z V V z z ",
"F | F | =.=.=.q.=.=.t.=.=.=.t.:.t.t.=.t.t.o.o.| F F | F F | | | F F F | | F F =.=.=.t.:.=.t.=.t.=.N.L.:.e e :.N.t.=.| F F F | F ",
"j.j.N.N.N.N.N.N.N.N.N.N.N.N.N.N.t.j.q.C.N.q.q.q.q.N.q.q.q.N.N.N.N.6.N.N.j.q.N.t.N.N.N.N.N.q.N.N.N.C.C.:.8 e =.L.N.N.N.N.j.N.q.N.",
"=.=.q.:.:.=.:.:.=.t.:.=.q.:.:.:.t.t.q.o.q.q.:.q.t.t.q.q.=.=.:.:.:.=.=.=.=.=.=.=.:.:.:.+.O.| | | | | | N 6 6 N | :.=.=.:.=.=.=.=.",
"e e z N [ N N N [ N N N [ N N N z [ c [ [ [ c c N [ N N e e e e 8 e e e e e 7 e e e e 7 > = + > = = : + O O + > 7 e e e e e 7 e ",
"e g z | N N N | | | [ | | [ | [ [ z [ c N z N [ z z g g g e e e g e e g e e e g g e 7 7 > > > & = : = + & & + : 7 8 e e e 8 e e ",
"' 6.] j.j.y.j.m.Z.{.Z.{.R.R.R.R.b.6.6.j.' ' ] j.' F ' ' ] ] ] y.G.G.6.6.$.6.b./.L.6.n z =.6.@.@.@.@.n z l l l l E ) ' ' _ ' ' 6.",
"b.b.Z.b.b.b.b.Z.{.{.+X+X`.{.OX{.b.b.b.] ] ] b.] ] ' ' ] b.j.b.b./._.G.b.b.G./.OXOX/.| | L.OX/.G.G.6.6.@.9.' ' ' ' ' y.y.' ] j.j.",
"_ _ y.y.] y.y.y.y.y.Z.y.y.b.b.y.] 6._ _ _ F _ _ _ F _ F _ _ _ ' 6.j.6.6.j.j.6.Z.OX/.| | N./.G.G.6.6.=.=.9.' E S S ) F _ x _ _ _ ",
"F F ' ' y.] ' 9.' 9.] ' y.] j.] j.] _ F S S x x x x x x S x S S @.=.=.=.' ] ] b.`.L.| z 6./.G.6.6.@.6.=.9.' S S S S S S x x x x ",
"_ ' ' ] y.j.] ] j.y.y.y.b.b.b.b.b.b.] ' x x x x S x x F ' ' ' ' ' ' y.] ' ] j.R.OX/.F | b./.b.] ' ' ' 9.' ' ) ) ' _ _ x x n n n ",
"' ' ] ] y.y.y.y.j.z.y.' b.R.6.6.b.] ' ' _ x _ x _ S x _ ' ] y.y.y.9.9.] y.j.b.R.OX/.n F /.OXb.6.6.6.y.] ' 9.9.' ' ' x x x x n n ",
"_ F _ F ' ' ' 9.9.9.' 9.] ] ] G _ _ _ x S F ' ' ' ' ' ' ' y.j.j.m.y.y.y.j.b.b.R.OXb.d d L.OXG.b.b.b.] ' 9.' 9.9.] ' n x x x n n ",
"x S S _ S S ' ' ' 9.' y.6.] ] ] S S S x x S _ ' ' ' ' ] ' y.j.m.b.j.] ] j.b.b.R.OXb.d d b.OX/.b.b.j.] y.' 9.' ' ' ' _ x x x x _ ",
"' ' ' ' _ ' ' ' ' 6.b.b.b.b.6.6.' _ x x x x _ S S _ ' ' ' y.9.9.y.y.' y.y.y.y.j.R.j.r r 6./.b.b.y.9.y.] ] ] ] _ _ S x x x x S x ",
"' ' _ ' ' ' ' y._ 6.j.b.6.6.b.6.' _ _ x x x x x x _ ' ' 9.' ' 9.' ' ' ' ] ] ' j.b.] r r 6.U.G.b.9.9.' ' ' ' ' _ S x x x x S S x ",
"S x S _ ' ' ' 9.6.6.6.$.] _ _ G F x x x x x x _ _ ' ' ' ' ' ' ' ' ' ' 9.] j.j.b.R.] r d @.b.b.b.' ' ] ' ' F n n S x x x x x x x ",
"_ _ _ _ ' y.y.y.6.6.6.6._ _ G _ _ _ _ _ _ _ _ _ y.] j.6.y.y.y.y.y.9.y.y.] j.b.R.Z.] r w 6.G./.b.y.j.j.] _ _ _ _ _ _ _ _ _ _ _ _ ",
"b.6.j.b.Z.Z.Z.Z.6.G.G.6.G.6.6.6.6.6.b.6.y.b.b.6.Z.Z.b.b.Z.Z.Z.Z.Z.m.Z.Z.Z.Z.Z.L.R.6.r d ] R.R.b.Z.Z.b.b.b.6.b.b.b.b.b.b.b.b.6.b.",
"6.6.6.=.9.' ' ' ~ ~ @.@.@.$.$.@.@.@.@._ _ _ _ _ ] ] 6.6.j.] ] ] ] ' ] ' ' 6.6.] 6.F 8 8 F ] 6.] ' y.6.' 6.] 6.] ] 6.] ] ' 6.6.] ",
"8 d r r 8 8 : : 3 & & & 3 & & & 6 & * * & & : 6 0 8 r r r r r r i r r r r r r r r 8 3 3 8 d 8 8 r r r r d 8 8 8 r d 8 8 d r r r ",
"8 8 8 8 8 8 : + + + & & + & * & & & * * & & & 6 0 d r r d d d r r r r r d d d d r r d r d 8 r d d d d d 8 d d d d 8 d r 8 8 d r ",
"n F F _ S F x l F d d S S d F F _ _ n F _ @.@.@.6.$.6.6.b.Z.R.y.) F ' ] b.Z.Z.b.j.' y.' j.] ] j.b.Z.Z.b.j.y.Z.Z.y.' ] ] j.] 6.6.",
"' ' ' _ _ _ ' ' ' ' ' _ ' ' ' ' b.] ' ] 6.j.6.b.b.b.b.b.{.OXOX{.j.j.Z.{.OXOXOX{.Z.b.Z.Z.b.Z.Z.Z./.OXOX`.Z.Z.{.{.Z.b.Z.Z.Z.b.b.j.",
"x _ F _ G _ _ _ _ F _ _ F _ _ F _ _ G _ _ _ _ _ ] j.6.6.j.b.R.Z.' j.R.OX{.Z.b.y.j.] y.y.] j.y.y.y.b.b.y.y.y.y.m.j.y.] y.j.] _ _ ",
"x x x x x x x n x S x x x n x x x x x x n n x n ' ] ] ] ] b.Z.b.9.j.`.OXR.b.j.6.y.y.' 9.] ] ' ' ' ' ' ' ' ' ' ' ' ' ' ' ' _ x x ",
"x x n n n n x x x x x x x x x x x x x x x x x x F _ ' ] b.Z.`.R.9.t.^.XXR.Z.b.b.j.b.] ' ] ] y.' ] y.] y.' ' S S S x _ S S F x x ",
"n n n x n n G n x x _ F _ S _ _ _ _ _ G _ _ _ ' _ _ ] b.b.{.OX`.9.9.`.XXR.Z.Z.Z.R.Z.Z.j.] j.b.j.y.y.] y.y.' S S x x x x x x x _ ",
"n x x x n x n x x _ _ ' ' ] ] b.4.b.z.j.y.b.Z.{.b.b.R.`.R.R.+X`.' ' {.`.R.Z.Z.Z.{.OXOX{.b.b././.Z.b.b.y.y.' ' ' _ x _ x x x x x ",
"_ n _ n _ n F x x x ' ' ' ] 6.b.b.b.b.b.b.Z.{.{.b.Z.OXR.Z.Z.+XR.F F Z.`.R.Z.b.b.{.{.{.R.R.b.`./.Z.b.j.y.' ' ' ' S x x x x x x _ ",
"' ' ' ' _ _ G x x S _ x _ S _ _ ' ] j.j.y.y.j.y.y.j.6.j.6.N._._.o.F N.L.G.G.6.6.6.6.G.6.6.6.j.j.6.6.$.G G G G G x x x x x S _ ' ",
"] ' ' _ _ _ G x x x x x x x x x _ _ ' ] ' ' ' ' ' ] ' ' @.N._.G.| V 6.G.G.6.=._ @.T @.| _ _ ' _ _ G G b n n n b x S x _ S _ ' ' ",
"] ' _ x G x G x x x x x x x x x n _ _ ] ' ' 9.' ' ] 6.6.6.G./.N.[ N :.N.6._ _ n T T T T F n n n G G G b n n n n x G _ ' ' ' ' ' ",
"y.y._ _ _ _ _ ] _ _ _ _ _ _ _ _ _ _ 6.6.y.y.y.y.y.j.6.6.G.G.G.6.z N N.G.j.6._ _ ~ ~ T @._ _ _ _ G _ _ G @.~ @.@._ ' ] y.y.y.y.y.",
"Z.b.b.j.6.b.6.6.b.b.6.b.j.b.b.b.6.b.b.b.G.G.G.G.b.b.Z.Z.G.G.G.6.n n 6.G.b.b.6.6.c.N.6.G.G.6.6.N.6.6.b.6.6.N.6.6.6.b.b.j.Z.Z.Z.b.",
"' 6.6.] 6.] 6.6.] ] 6.] ] ] 6.] 6.6.$.6.@.=.@.=.' _ _ ' | | @.| z z _ ] 6.6.6.6.6.6.6.6.6.N.6.6.6.b.G.6.N.:.N.6.j.6.j.t.] y.6.' ",
"r r r d 8 d d r d r r d r r r d 8 r 8 8 8 g e 8 : : : : : & : : 8 8 8 8 t 8 d d g N T N T N T N T T G T [ N | | n | F z d r r r ",
"3 3 $ 3 3 $ 3 $ 3 3 $ 3 3 3 $ 3 3 3 3 3 * 6 : & X             X + : 3 3 3 3 3 3 g g g g g g g g e g g g g c e e z e z r 3 3 $ 3 "
};
