/* XPM */
static char *north[] = {
/* columns rows colors chars-per-pixel */
"64 64 175 2 ",
"   c #2C464E",
".  c #2C4750",
"X  c #2C4850",
"o  c #2D4952",
"O  c #2D4853",
"+  c #2D4953",
"@  c #2E4B53",
"#  c #2D4954",
"$  c #2E4955",
"%  c #2E4B54",
"&  c #2E4B55",
"*  c #2E4A56",
"=  c #2E4A57",
"-  c #2F4B57",
";  c #2E4C55",
":  c #2F4C55",
">  c #2F4D55",
",  c #2E4C56",
"<  c #2F4D56",
"1  c #2F4D57",
"2  c #2F4E56",
"3  c #2F4E57",
"4  c #2F4B58",
"5  c #2F4C58",
"6  c #2F4D58",
"7  c #2F4D59",
"8  c #2F4D5A",
"9  c #304C59",
"0  c #304F58",
"q  c #304E59",
"w  c #314C5A",
"e  c #304D5A",
"r  c #314C5B",
"t  c #304E5A",
"y  c #304F5A",
"u  c #304E5B",
"i  c #304F5B",
"p  c #314F5B",
"a  c #314F5C",
"s  c #324F5D",
"d  c #30505A",
"f  c #31505B",
"g  c #31505C",
"h  c #31515C",
"j  c #31515D",
"k  c #32505D",
"l  c #32505E",
"z  c #32515E",
"x  c #33515E",
"c  c #33515F",
"v  c #33525F",
"b  c #33535F",
"n  c #33555F",
"m  c #335260",
"M  c #335360",
"N  c #335361",
"B  c #345360",
"V  c #335460",
"C  c #335560",
"Z  c #335461",
"A  c #335561",
"S  c #335661",
"D  c #335462",
"F  c #335562",
"G  c #345461",
"H  c #345462",
"J  c #345562",
"K  c #345563",
"L  c #345662",
"P  c #345663",
"I  c #355663",
"U  c #345763",
"Y  c #355763",
"T  c #345664",
"R  c #345764",
"E  c #355764",
"W  c #345765",
"Q  c #355765",
"!  c #355766",
"~  c #355963",
"^  c #355A63",
"/  c #355864",
"(  c #355964",
")  c #345865",
"_  c #355865",
"`  c #355965",
"'  c #365965",
"]  c #365A65",
"[  c #365B65",
"{  c #355866",
"}  c #355966",
"|  c #355867",
" . c #355967",
".. c #365966",
"X. c #365967",
"o. c #355A66",
"O. c #355A67",
"+. c #365A66",
"@. c #365B66",
"#. c #365A67",
"$. c #365B67",
"%. c #375B67",
"&. c #365D66",
"*. c #365C67",
"=. c #375C67",
"-. c #365D67",
";. c #365E67",
":. c #365A68",
">. c #365B68",
",. c #375B68",
"<. c #365B69",
"1. c #375B69",
"2. c #365C68",
"3. c #375C68",
"4. c #365D68",
"5. c #375D68",
"6. c #365C69",
"7. c #375C69",
"8. c #365D69",
"9. c #375D69",
"0. c #375E68",
"q. c #375F68",
"w. c #375E69",
"e. c #375F69",
"r. c #375D6A",
"t. c #375E6A",
"y. c #375F6A",
"u. c #385D69",
"i. c #385F69",
"p. c #385D6A",
"a. c #385E6A",
"s. c #385F6A",
"d. c #385E6B",
"f. c #385F6B",
"g. c #395F6B",
"h. c #385F6C",
"j. c #395F6C",
"k. c #38606A",
"l. c #38616A",
"z. c #38606B",
"x. c #39606B",
"c. c #38616B",
"v. c #39616B",
"b. c #38606C",
"n. c #39606C",
"m. c #39616C",
"M. c #39606D",
"N. c #39616D",
"B. c #3A616D",
"V. c #39626C",
"C. c #39626D",
"Z. c #39636D",
"A. c #3A626D",
"S. c #3A626E",
"D. c #3A636E",
"F. c #3A636F",
"G. c #39646D",
"H. c #39646E",
"J. c #39656E",
"K. c #3A646E",
"L. c #3A656E",
"P. c #3A646F",
"I. c #3B646F",
"U. c #3A656F",
"Y. c #3B656F",
"T. c #3A666F",
"R. c #3B6570",
"E. c #3B6670",
"W. c #3A6770",
"Q. c #3B6671",
"!. c #3B6771",
"~. c #3C6771",
"^. c #3C6872",
"/. c #3C6972",
"(. c #3C6973",
/* pixels */
"/.P.7.! ! :.i.a.X.X.j.j.j.X.i s v././.~./.~.B.j.j.j.B.j.B.] : : ] g.,.X.X.X.v.i.X./ ! 7.i.X.i f i.T.v.b.P.P.W.W.W.P.b.b.b.{ 2 X ",
"/.P.7.{ :.7.j.i.7.7.j.j.R.X.i s b.~.~.T.R.~.B.j.j.i.j.j.g.] : : ] g.X.X.X.X.i.i.7.7.7.7.i.X.i f i.T.b.v.P.R.P.P.V.V.b.b.R.{ 2   ",
"/.P.7.{ 7.i.j.j.a.j.j.j.m.X.i j j.~.j.i.j.B.B.j.7.X.7.7.g.X.: : ] m.g.i.X.X.g.g.i.i.i.v.B.X.y i i.P.i.i.i.b.P.b.k.;.k.b.b.( 2   ",
"R.R.b.7.b.~.b.b.j.j.j.B.m.X.i i i.B.7.X.i.B.j.7.X.X./ / i.X.: : X.m.m.g.i.i.m.B.B.j.B.B.B.X.y c i.b.7.{ i.v.b.b.;.{ 7.b.B.{ 2   ",
"b.R.P.R.~.~.~.~.B.m.j.B.B.] 2 2 X.j.7.7.B.B.7.X.X.! ! X.a./ : 2 ,.T.b.v.B.T.T.B.b.b.b.B.b.{ i i ;.i.{ { ;.i.P.b.,.{ X.,.v.X.2   ",
"{ 7.i.v.v.v.v.i.,.X.X.X.X.n @ 2 X.i.X.7.~.~.7./ X.X.X.7.a.7.: : ( i.i.i.i.i.v.i.i.,.i.X.i.G i i X.i.i.{ { { b.b.,.{ { ,.i.X.2   ",
"f f j j j j j j f q : : 2 @   2 X.i.7.7.R.R.i.X.7.7.X.X.j.X.: O f n c c c n c c c c c c G j w i X.j.7.{ G { i.i.;.{ X.X.g.] 2   ",
"j j j f i i f j f f 2 : 2 @ X 2 / i.7.7.B.B.X.X.a.a.7.X.a./ 2 @ f n G n G c n n n c c c c a : f ,.i.X.G G ! i.i.;.{ X.X.g.X.2   ",
"i.j.j.i.X.7.i.v.m.m.X.X.] n @ @ X.g.X.X.m.m./ I i.g.X.X.g.] 2 @ ( v.v.v.k.k.k.k.;.7.{ 7.i.G i i X.i.{ G c { b.b.;.{ { :.7.{ f + ",
"~.~.R.R.B.j.T.~.T.m.B.g.m.X.q q X.i.X.X.g.,.I G X.g.X.X.i.X.2 2 ,.W.P.P.P.R.P.P.k.b.b.b.b.X.i a ,.i.G G n { b.b.7.{ { ;.b.7.f * ",
"B.B.7.7.X.i.B.B.g.X.X.i.m.,.q q X.v.7.X.i.7.I G X.X.X.X.g.X.i i k.P.k.;.b.P.b.b.7.i.b.b.b.7.i i X.i.{ c G G i.j.;.{ { 7.i.;.f * ",
"j.j.7./ / X.7.7.X.I X.X.s.X.f 0 X.i.X.X.g.i.I G / / I X.g.X.i c k.b.;.{ 7.b.b.b.:.:.i.b.i.{ i i { i.G n c ! 7.i.:.{ { ;.j.{ i * ",
"j.i.7.! ! ! X.! G I / X.g.X.y y X.i.G { 7.i.G G / / G / g.X.y y ;.k.7.{ { 7.b.7.:.{ { 7.b.;.i i G { G G c G i.j.;.{ { i.i.:.j * ",
"B.B.7.! ! ! ! ! G G I X.g.] y y { 7.( G 7.7.! G G / G ! g.X.y y ;.7.7.{ } ;.k.7.{ { { :.b.{ i i ( { G G G G i.j.{ { { { j.{ i * ",
"~.B.7.K G ! ! ! G G v I g.,.y y ! { G G ! ! G G G G G G i.X.i i { i.:.{ } { ;.{ { { { ;.b.;.i i { i.( c G ! i.j.7.{ G { i.,.i * ",
"~.B.7.! G G G ! G G c I g.X.y y G ! G G ! ! G G G c G ! i.X.i i ;.b.7.{ } { { :.;.{ { 7.v.{ i i { i.G n j ! 7.i.;.G G G i.{ i * ",
"B.j.7.! G G G G G G m ! i.{ i i m ! G G { ! m m c n G { i.X.i f ;.P.7.{ { { 7.7.;.{ { i.b.{ i 7 G :.G G j { i.i.! G G G i.X.i : ",
"B.j.i.G G c m m G j m G i.7.i w G G G G ! ! D m G G c G i.X.i f k.b.;.{ { 7.b.i.{ { { { v.{ i 2 G { G D D G i.:.G c n { i.7.a $ ",
"~.B.X.G D m m m c G G ! i.X.i w G ! D G D G m D G c c X.i.X.f f ;.7.{ D { 7.v.v.7.{ { 7.i.7.i w D { G D n D { { G m D G i.X.i * ",
"(.B.{ c m m D G G G c G i.X.i i ! ! D j m G G j c G n G i.X.i i ;.7.G D P ;.7.7.;.{ { 7.i.X.i w D { D n n D ( { G G j ! i.{ i $ ",
"/.T.{ j m G ! G G G G G i.X.i : D { G m m j G G c G c ! p./ y y { v.G G { { { ;.{ { { 7.j.X.i i D { D j D G { { G G c / i.X.s : ",
"/.b.{ m m G { { G G G ! i.X.i i D { G m m D m G G c G G p.7.y y { 7.( D ( { { { { { { ;.i.i.i i D ( D n D G G ! G c G / i.X.i $ ",
"B.v.:.! j D ! ! G G ! / i.7.i w D { G D j D m D G G c I p.7.y y { { G D D D U } { { { 7.i.{ i 4 D { D n j D G G G G G G i.X.i $ ",
"j.i.:.{ G D ! ! G G ! 7.i.X.i w D ! G G G m m m c G c I g.X.y i D { G j j D } } } } { ;.v.{ i w D { D n G G m m G c c / i.X.i $ ",
"b.j.7.! ! ! ! ! G G ! X.g.X.y i D ! D j G m D m D G m G g.X.y w D { G G D G { { G G { 7.v.{ i i D { G D D G m D G c G G i.{ j * ",
"B.i.X.! { { { ! K ! ! X.g.X.y i D { ! G j D G G j G D { g.X.y y G ;.G G m G { { G D { { i.;.i 2 D { G m j j D D G G j ( i.7.i * ",
"j.j.7.! { { { X.7.7./ 7.j.X.i : G { ! G D m ! G G G j ! g.X.s s ;.7.G j j D { ( G D G { i.{ 2 : D { G D G G G G ! ! D { i.,.i * ",
"j.i.X.! X.X.{ X.a.a.7.7.i.X.i i G { { { D D ! ! G n G G 7.7.G G { 7.{ n D D ( D G n G G i.{ 2 : n ( G m m G G G ! G G G i.X.i * ",
"j.j.X.X.a.7.{ X.a.j.j.j.j.7.i w P :.{ ! D D G { G m j { i.i.s s { ;.G n j G G D G j G { v.( 2 + D } D j m m D G { { G / i.X.i : ",
"j.7.X.X.j.j.7.7.j.j.j.B.j.X.i w D { { ! G G ! ! G D G { i.X.G s ! { G D G G D D G c G G i.{ 2 ; n } D D G m j G { { G G i.X.i $ ",
"X.X./ 7.R.R.j.a.j.j.j.B.B.X.f i D { { { { ! { ! G m ! { i.7.s c { 7.G G ( { D j n G c { i.{ 2 + D { D n G m n G ( { ! X.i.X.i $ ",
"X.X.X.7.R.R.R.j.j.j.j.j.j.X.y y D { { { { :.:.{ G ! ! { i.7.G s ,.i.{ G { { G G G G G G i.( 2 ; D :.G j c G n G { { X.7.j.X.i $ ",
"g.7./ 7.R.!.B.j.g.m.g.m.B.X.i w K ! X.! ! X.a.1.X.T / 7.g.,.c c ,.i.{ { 7.7.G G / / G G i.X.> @ ] X.I v j G G G { { { 7.7.{ j * ",
"g.7.7.7.B.!.B.j.m.g.m.g.m.X.i w K X.X.! ! X.a.a.X.X./ X.p.p.c v i.b.7.:.v.i.{ G / / G ! i.X.@ q ] g.] n D m m G ( { { ;.b.;.i * ",
"X./ / 7.B.B.B.j.g.m.m.m.m.X.y y X.a.1.! ! X.X.X.X.! / 7.g.,.v v i.P.7.;.j.i.G ( 7.7.G I 7.] @ > X.g.X.I G D m D D G { 7.i.;.i * ",
"/ X./ X.g.m.j.j.g.g.g.g.m.X.y y X.a.X.! ! ! X.X.! X./ X.p.,.s G i.b.7.{ i.i.G ( p.i.I I p.X.q @ ] g.i.I G m m m j G { 7.j.{ a * ",
"X.X.K X.p.g.g.g.B.g.X.7.g.X.f i K X.X.! ! X.a.a.X.! ! X.g.,.s v k.G.7.:.j.j.{ :.g.7.G I ,.] : : ] g.i.! G c G G G G ! 7.j.7.j w ",
"X./ X.X.g.g.g.g.g.g.X.X.m.X.y y K X.X.! X.X.a.d.X.X.X.X.p.p.c G k.G.7.;.:.i.:.:.g.i./ / i.X.: : ] g.X.X.G c j n G G G { i.:.G w ",
"{ { X.X.g.g.7.7.g.g.X.X.i.X.i i X.a.X.! ! X.d.d.X.X.! X.g.X.G s k.G.7.{ { ;.{ :.i.i.X.X.i.X.2 2 I g.X.G G G G D G m G ! i.7.c w ",
"{ { { X.7.p.X.X.X.g.X.7.g.X.i y X.a.X.! X.X.d.d.X.! X.X.g.7.s G k.G.7.{ :.7.{ { i.i.X.X.g.] @ 2 ] m.,.] G G G G G m G G 7.7.c w ",
"{ { ! X.X.X.{ X.X.X.{ X.v.X.y s X.a./ G ! X.j.j.7.! ! 7.7.7.c G k.G.;.{ 7.v.:.;.:.;.{ 7.v.( 2 2 ;.P.;.( G G ( G G m G G i.7.c w ",
"X.X.X.{ ! { { ! { ! { X.v.X.y y X.a./ G G X.7.7.X.! ! X.i.7.s G 7.G.7.;.7.7.{ { { { } :.v.{ 2 2 ;.b.7.{ G G { ! D D n { i.7.c w ",
"a.a.X.{ { ! { { ! { { 7.i.X.f s 7.p./ c G K / X.! ! ! 7.j.7.s c 7.b.:.} { :.;.{ } } } :.i.{ * 2 { k.7.{ { { { { G j G G i.X.G w ",
"B.a.X.{ ! ! { { ! ! { X.g.X.y y / p.T G G G ! X.! ! ! / a.7.c c 7.7.7.} ;.{ { { } } } 7.v.{ 2 2 ;.k.7.{ { ;.X.X.G D j { i.7.c w ",
"M.a.{ { K K K ! G ! ! X.g.X.i i X.7.G G c G ! ! / G / 7.g.,.c c 7.7.{ ;.7.7.( G } } { ;.7.;.i i 7.k.7.} { X.i.7.G c G I 7.7.s w ",
"M.a.7.K B K K K G G ! X.g.X.i i X.i.! G G G ! K G G ! 7.g.X.c c 7.k.7.:.7.7.G D D } } { b.{ i f k.P.;.} { 7.i.i./ G G I i.7.G w ",
"j.a.7.! K G K K G G / X.i.X.s i X.i.! s G G ! ! G G / X.g.X.c c 7.j.:.{ 7.{ D n } } D ( i.{ j j k.G.7.} { X.j.i.X.G G I p.7.s w ",
"M.a.{ K G G c c c G I X.m.X.y y X.i.K G G K ! K G G I X.g.,.c c ;.i.{ { { { D D } D D U i.:.i f k.b.7.} ! 7.j.i.7.X.G G p.7.G w ",
"M.a.a.K m m m m D m G ! i.{ i i X.i./ G G / ! ! G G G ! g.X.c c i.i.{ G { { G G X.X.G I i.,.i i [ b.>.} } ;.b.G.7.} D D 7.;.j a ",
"M.a.{ ! K m m m m m j ! i.7.i a 7.i.I G ! 7.7./ G G G G i.7.c c 7.i.G G D { D G G G G I i.X.i i [ k.O.} } 7.b.b.[ } D U k.7.j w ",
"M.a.1.! K m m m G m m ! i.X.i a j.B./ G K X.7.7.G c G G i.X.c c 7.i.{ n D D D m G G c I i.X.i i 7.7.7.} } 7.k.b.>.D D U 7.7.G w ",
"M.j.{ K K m m G m m m ! i.{ i j j.B./ K ! X.j.7.! G c ! i.X.c c ! 7.G G j n m m G G c I g.X.i i ;.b.} } } :.b.k.>.} D D 7.7.G w ",
"M.a.X.{ K c c m G G c I i.X.y s 7.j.X.! / 7.g.g.G G c G v.7.i i G { G G D j G G n c c G i.X.y i { k.7.{ } ;.k.G.X.! G G 7.X.c w ",
"a.a.{ ! K G K K G c G I i.X.i i 7.a.X./ / / g.7.! G n { i.{ i i ! { G G G j G m G G G { i.X.y s { h.7.{ { 7.G.G.i.! G I i.7.G w ",
":.{ { { K G K K G c G I i.X.i i X.j.X.K X.X.j.7.{ G G G i.X.i i { i.( G D D m m G G n G i.X.i i ;.i.:.{ 7.b.R.G.,.! G I g.X.c w ",
"{ { { { G G ! K G n c I i.X.i i 7.B.X.X.X.7.j.i.{ ! G { i.X.i i { i.G c G G G G G j G { i.X.i i :.b.7.:.b.b.P.G.i.G G I i.7.s w ",
"{ { { K G K { K G G j ! i.X.i j i.B.i./ 7.j.j.j.{ ! G G 7.7.f 7 G { G G ( ( { D D n n { i.{ i i v.b.7.7.i.B.B.j.{ { G G i.7.a : ",
"{ { { { K K { { G G D ! i.X.i j g.~.i.7.j.j.j.j.i.{ ! ! 7.{ d 7 ( { D D { { ;.{ G D m G i.;.i j v.b.7.i.i.j.B.i.i.{ G ! i.7.i $ ",
"{ { { { K { { K G G G :.i.X.i f g.~.B.i.j.j.j.j.i.7.{ :.v.;.d 7 G { D D U ;.{ { { D D ( i.X.i f ,.P.B.i.j.j.b.j.i.i.{ { i.X.i $ ",
"{ { { { { { { { G ! ! :.i.X.i j i.~.R.B.B.B.R.B.j.i.:.i.b.{ d 7 G { ( D } { { { { ( D G i.X.i a k.P.B.B.B.B.b.v.b.b.i.7.j.X.a $ ",
"{ { { { { { { { K ! { X.j.X.y y 7.R.~.~.~.~.~.R.B.j.j.j.b.7.7 7 D } } } } } } } { { D ( 7.7.d f ;.b.P.P.T.T.T.T.B.i.j.i.B.7.i : ",
"X.X.X.{ { { X.X.X.X.{ X.i.7.y i G i.j.B.B.B.j.i.i.7.X.7.;.D 7 7 D } } } } } } } { { D ( 7.{ f 7 ( v.v.P.b.v.v.i.7.7.7.7.7.G w : ",
"a.a.X.{ { X.a.a.X.{ / 7.i.X.s : i s G G G G G G G s a i f 7 o 2 D [ } } } } } } { { { { v.;.d 7 U 7.;.;.7.X.G c c c c c c a w $ ",
"M.j.X.{ { X.a.j.X.{ / X.j.7.a : w w w w w w w w w w $ : $ o   @ D } } } } } } } ;.{ { :.b.{ d 7 D { { { ! ! s w w i w w w w * * "
};
